<?xml version="1.0" encoding="UTF-8" standalone="no"?><!DOCTYPE svg PUBLIC "-//W3C//DTD SVG 1.1//EN" "http://www.w3.org/Graphics/SVG/1.1/DTD/svg11.dtd"><svg width="100%" height="100%" viewBox="0 0 646 604" version="1.1" xmlns="http://www.w3.org/2000/svg" xmlns:xlink="http://www.w3.org/1999/xlink" xml:space="preserve" style="fill-rule:evenodd;clip-rule:evenodd;stroke-linejoin:round;stroke-miterlimit:1.41421;"><path d="M413.483,154.213c0.813,0.84 0.813,0.84 0,0Z" style="fill:#181a29;fill-rule:nonzero;"/><path d="M334.656,156.827c4.453,0.293 -2.133,3.893 0,0Z" style="fill:#181a29;fill-rule:nonzero;"/><path d="M25.483,230.213c0.826,0.8 0.826,0.8 0,0Z" style="fill:#181a29;fill-rule:nonzero;"/><path d="M290.669,326.16c0.867,0.853 0.867,0.853 0,0Z" style="fill:#181a29;fill-rule:nonzero;"/><path d="M282.749,343.587c0.787,0.76 0.787,0.76 0,0Z" style="fill:#181a29;fill-rule:nonzero;"/><path d="M240.083,362.28c0.853,0.84 0.853,0.84 0,0Z" style="fill:#181a29;fill-rule:nonzero;"/><path d="M214.816,371.533c0.853,0.854 0.853,0.854 0,0Z" style="fill:#181a29;fill-rule:nonzero;"/><path d="M196.056,376.853c0.813,0.774 0.813,0.774 0,0Z" style="fill:#181a29;fill-rule:nonzero;"/><path d="M214.763,376.907c0.76,0.773 0.76,0.773 0,0Z" style="fill:#181a29;fill-rule:nonzero;"/><path d="M352.083,387.56c0.853,0.84 0.853,0.84 0,0Z" style="fill:#181a29;fill-rule:nonzero;"/><path d="M50.749,448.907c0.774,0.76 0.774,0.76 0,0Z" style="fill:#181a29;fill-rule:nonzero;"/><path d="M118.776,542.12c0.787,0.8 0.787,0.8 0,0Z" style="fill:#181a29;fill-rule:nonzero;"/><path d="M396.136,567.52c0.787,0.8 0.787,0.8 0,0Z" style="fill:#181a29;fill-rule:nonzero;"/><path d="M212.096,576.92c0.76,0.747 0.76,0.747 0,0Z" style="fill:#181a29;fill-rule:nonzero;"/><path d="M486.563,3.36c1.12,-1.44 2.613,-2.507 4.226,-3.36c-5.053,10.893 -15.933,17.267 -23.173,26.52c5.2,-2.12 8.587,-7.173 13.893,-8.987c-7.106,10.84 -17.453,18.92 -24.906,29.494c0.973,-0.68 2.946,-2.027 3.92,-2.707c0.106,3.347 0.04,6.693 0.12,10.04c1.546,-0.96 3.066,-1.973 4.613,-2.96c3.227,-4.787 8.173,-9.213 14.133,-9.773c-6.306,13.786 -16.533,25.24 -24.906,37.773c-9.574,12.6 -18.12,26.04 -24.96,40.347c-2.667,6.106 -6.76,11.666 -8.067,18.32c4.96,-3.894 6.187,-10.774 8.907,-16.2c7.96,-10.76 13.053,-23.747 23.253,-32.76c7.84,-9.907 16.44,-19.734 27.56,-26.12c-1.133,3.48 -3.253,6.493 -5.053,9.653c5.28,-3.907 7.266,-10.96 13.413,-13.907c-4.6,10.654 -12.693,19.467 -17.813,29.894c-5.6,8.52 -9.214,18.093 -14.214,26.933c-10.04,21.187 -20.826,42.027 -29.786,63.693c-5.76,9.334 -7.88,20.24 -11.84,30.334c-4.427,10.866 -7.334,22.24 -11.134,33.333c-0.573,4.027 -5.28,2.107 -7.653,0.987c2.36,-2.64 4.533,-5.494 5.547,-8.934c-3.24,2.96 -5.48,6.787 -8.547,9.907c-12.76,1.2 -25.813,-1.067 -38.48,1.213c10.613,1.907 21.453,0.28 32.16,1c2.853,0.28 5.653,1.347 8.547,0.747c3.173,-0.733 5.786,1.96 8.893,2.027c12.627,0.693 24.733,4.506 36.533,8.813c1.84,0.987 3.814,0.28 5.667,-0.28c1.147,2.2 2.627,4.213 4.093,6.213c-2.213,1.454 -4.36,2.987 -6.44,4.614c-6.613,-2.28 -13.36,-4.147 -20.16,-5.827c-4.893,-1.587 -10.2,-0.107 -15.093,-1.747c-11.493,-3.066 -23.48,-2.08 -35.227,-2.08c-3.093,1.52 -6.4,2.267 -9.813,2.587c11.68,0.373 23.507,-0.333 35.013,1.96c15.6,-0.64 31.24,3.307 44.72,11.173c-4.013,2.174 -8.386,3.48 -12.546,5.32c2.493,1.6 6.08,2.227 7.186,5.347c-1.706,0.187 -3.4,0.36 -5.093,0.533c-0.533,2.494 -1.387,4.88 -2.2,7.294c4.293,0.226 8.76,0.613 12.347,3.253c-3.734,0.373 -7.614,0.693 -11.254,-0.427c-4.68,-1.586 -9.693,-0.52 -14.493,-1.133c-9.707,-2.08 -19.733,-1.6 -29.56,-1.04c6.427,3.293 14.2,-0.227 20.96,2.453c9.027,0.707 18,2.094 26.84,4.147c-1.813,0.707 -3.64,1.333 -5.467,1.987c-0.426,1.88 -0.84,3.773 -1.24,5.68c-2.946,-0.627 -5.786,-1.92 -8.826,-1.934c-18.24,-0.213 -36.48,0.094 -54.707,0.054c-7.333,1.52 -14.787,2.44 -22.187,3.613c-1.893,0.613 -4.32,0.773 -4.973,3c4.8,-2.053 9.987,-1.907 15.107,-2.013c5.693,-0.84 11.44,-2.214 17.24,-1.374c4.293,0.787 7.066,4.347 10.413,6.8c1.133,-1.293 2.267,-2.6 3.413,-3.893c2.694,0.067 5.387,0.16 8.08,0.347c0.227,0.72 0.68,2.173 0.894,2.893c-3.987,-0.093 -8,-0.187 -11.974,0.373c1.627,1.027 3.4,1.467 5.32,1.32c8.867,-0.026 17.747,-0.413 26.614,0.014c4.613,1 9.266,1.546 13.973,1.88c-7.307,4.32 -15.893,1.546 -23.64,4.066c-5.2,0.547 -10.64,-0.413 -15.467,2.134c-6.253,1.52 -9.2,7.826 -10.373,13.586c-1.373,12.36 -5.907,24.08 -7.587,36.387c-0.76,7.36 -2.76,14.587 -2.253,22.053c0.253,5.374 -1.8,10.52 -1.6,15.894c0.267,10.253 -0.787,20.6 1.32,30.72c0.24,11.56 0.307,23.146 0.267,34.72c0.693,11.826 4.293,23.226 6.92,34.72c-1.4,-0.827 -2.787,-1.68 -4.16,-2.534c0.333,3.427 0.706,6.84 1.2,10.24c-2.68,-2.266 -5.614,-4.12 -9.174,-4.546c-1.24,-3.56 -2.226,-7.187 -3.12,-10.84c-0.28,-1.654 -1.586,-2.707 -3.106,-3.16c3.453,14.466 9.826,28.08 15.16,41.92c-4.894,-3.307 -5.974,-9.894 -9.787,-14.254c-13.32,-17 -18.187,-38.6 -22.32,-59.32c-0.8,-2.64 -1.027,-5.786 -3.36,-7.6c-0.427,6.2 2.827,11.787 3.453,17.854c1.174,6.106 2.36,12.226 3.52,18.346c1.307,4.934 3.6,9.547 4.907,14.494c-1.107,-0.4 -3.32,-1.214 -4.413,-1.614c4.413,6.6 7.72,13.867 10.333,21.36c-6.067,-7.84 -10.56,-16.84 -13.827,-26.16c-1.133,-3.106 -2.906,-5.933 -4.933,-8.52c-0.24,2.214 -0.467,4.427 -0.693,6.64c-2.987,-5.88 -5.6,-11.96 -7.987,-18.12c-1.227,-0.106 -3.693,-0.346 -4.92,-0.453c1.6,3.413 3.187,6.893 3.893,10.627c-3.453,-3.014 -5.173,-7.694 -4.493,-12.214c-0.92,-0.733 -1.867,-1.4 -2.853,-2.013c-0.374,4.307 -2.067,8.2 -4.494,11.733c-8.506,-17.813 -15.053,-36.853 -16.826,-56.573c-1.814,-1.187 -3.694,-2.28 -5.507,-3.453c1.08,0.373 3.227,1.106 4.293,1.48c-0.706,-3.067 1.587,-8.4 -3.026,-8.787c2.186,-9.947 -4.574,-19.44 -1.76,-29.4c-1.174,0.267 -2.334,0.533 -3.494,0.827c0.494,-0.854 0.96,-1.707 1.387,-2.574c0.147,-7.4 -1.84,-14.773 -0.933,-22.173c2,-9.027 0.96,-18.307 1.32,-27.467c-2.2,0.214 -4.4,0.374 -6.6,0.307c-4.72,7.413 -1.787,16.373 -3.227,24.507c-2.027,-3.947 -0.533,-8.587 -2.347,-12.6c-1.293,11.72 0.027,23.546 -0.533,35.32c-0.427,4.546 1.227,8.84 1.92,13.266c0.84,0.307 2.507,0.934 3.347,1.24c-3.374,0.867 -3.974,3.867 -3.947,6.947c1.04,-0.387 3.133,-1.173 4.187,-1.56c-1.04,2.573 -2.8,5.08 -2.334,7.987c1.494,8.866 3.414,17.693 4.987,26.56c1.187,-0.387 3.56,-1.147 4.733,-1.52c-1.44,1.68 -2.88,3.36 -4.24,5.12c1.307,0.093 3.92,0.293 5.227,0.386c-1.413,0.4 -2.84,0.774 -4.267,1.12c2.2,5.84 4.72,11.574 7.307,17.267c1.213,-0.173 3.64,-0.493 4.853,-0.667c-1.2,1.574 -2.84,2.227 -4.906,1.96c2.44,4.454 5.88,8.507 7.093,13.534c-7.733,-4.547 -10.627,-13.387 -13.907,-21.187c-2.626,-5.213 -4.466,-10.76 -6.2,-16.307c-6.306,-16.013 -6.96,-33.44 -10.04,-50.173c-0.053,-14.56 -0.226,-29.147 0.134,-43.707c-1.934,0.28 -5.254,3.48 -6.32,0.92c-0.134,-0.64 -0.414,-1.92 -0.547,-2.573c-1.627,0.867 -3.253,1.693 -4.907,2.493c0.64,0.44 1.894,1.32 2.52,1.76c-0.026,0.36 -0.08,1.08 -0.106,1.44c-9.894,2.774 -19.307,6.894 -28.96,10.36c-2.907,1.4 -6.48,2.054 -8.574,4.72c-2.026,10.12 0.72,20.294 1.534,30.374c2.04,5.666 0.04,11.826 1.893,17.533c1.88,5.453 -1.253,10.853 -0.867,16.387c-0.56,0.013 -1.666,0.04 -2.213,0.053c-0.933,-6.613 -0.507,-13.347 -1.507,-19.933c-1.76,-5.32 0.267,-11.574 -3.773,-16.094c-0.533,3.507 -0.413,7.094 0.333,10.574c1.2,5.466 0.494,11.173 2.094,16.586c-0.654,-0.173 -1.947,-0.52 -2.6,-0.693c-2.667,-10.04 -1.4,-20.533 -3.854,-30.64c-3.84,2.747 -2.64,7.413 -1.826,11.32c-0.147,4.213 0.453,8.4 1.213,12.547c1.933,6.32 0.293,13.066 2.413,19.36c0.24,7.893 3.387,15.386 3.534,23.293c-2.654,1.827 -4.254,4.693 -3.12,7.933c2.92,6.76 0.026,14.32 2.48,21.187c1.293,6.867 4.666,13.253 5.333,20.227c-5.707,-8.054 -10.707,-16.747 -14.347,-25.96c-6.946,-15.174 -7.52,-32.374 -13.973,-47.694c-0.747,5.254 0.307,10.427 1.267,15.547c0.04,13.413 5.173,25.96 9.346,38.48c-2.84,-3.547 -4.613,-7.76 -6.88,-11.653c-1.48,-2.52 -4.653,-2.96 -6.946,-4.44c0.546,2 1.133,4.013 1.546,6.066c-3.226,-4.653 -5.16,-10.026 -8.093,-14.84c-3.653,-5.933 -3.707,-13.333 -7.707,-19.08c-1.973,-2.493 -1.4,-5.826 -1.8,-8.746c-1.013,-0.734 -2.013,-1.454 -3,-2.174c1.014,2.88 1.36,5.92 2.147,8.867c0.827,2.973 3.24,5.4 3.32,8.6c0.2,5.68 0.707,11.427 -1.347,16.893c-3.24,-4.693 -3.6,-10.84 -7.76,-15c-4.093,-9.906 -8.76,-19.68 -11.6,-30.066c-2.026,-9.08 -3.8,-18.28 -3.76,-27.614c-1.106,-5.346 -2.666,-11.426 0.84,-16.266c7.64,-7.56 19.067,-10.56 25.467,-19.534c-5.173,2.587 -9.773,6.107 -14.787,8.96c-4.24,2.4 -8.12,6 -13.28,6.08c-0.786,-3.106 1.134,-7.266 -1.693,-9.546c-2.613,-0.307 -5.24,-0.16 -7.853,-0.134c1.426,3.627 0.573,9.974 5.706,10.214c-0.8,0.32 -2.4,0.946 -3.213,1.266c-0.973,3.414 -1.973,7.04 -5,9.267c-0.733,-10.48 0.08,-21 -0.28,-31.493c7.867,-6.667 17.653,-10.2 26.373,-15.494c5.72,-2.773 11.72,-5.066 16.92,-8.786c-7.2,1.266 -13.466,5.253 -20.013,8.293c-7,3.16 -13.52,7.307 -20.72,10.067c-4.427,1.573 -8.64,4.293 -13.52,4.026c-1.653,-5.706 4.267,-8.866 4.92,-14.106c0.373,-2.827 3.44,-3.707 5.4,-5.24c7.293,-4.08 15,-7.387 22.68,-10.694c1.64,-0.72 2.893,-2.026 4.187,-3.213c-9.454,2.107 -17.907,6.92 -26.374,11.44c0.307,-2.133 0.68,-4.253 1,-6.373c-2.973,3.053 -5,6.813 -7.333,10.333c-1.973,-2.987 -2.16,-7.107 -0.227,-10.16c2.8,-4.813 8.36,-8.253 8.68,-14.24c-1.893,0.947 -3.786,1.893 -5.666,2.853c0.226,-0.733 0.706,-2.213 0.946,-2.96c5.387,0.52 7.614,-6.653 13.4,-5.04c-1.013,1.774 -2.053,3.52 -3.106,5.254c0.733,-0.147 2.186,-0.454 2.92,-0.614c0.173,-1.92 0.16,-3.88 0.666,-5.76c1.654,-1.613 4,-1.946 6.094,-2.706c4.813,-1.307 8.56,-4.934 13.413,-6.147c8.013,-3.333 16.413,-6.053 23.92,-10.4c-13.453,3.067 -25.653,10.107 -39.253,12.733c2.12,-3.013 5.506,-5.16 7.026,-8.56c0.12,-5.893 -1.093,-11.946 0.8,-17.68c1.267,-7.133 4.614,-13.76 5.307,-21c0.4,-4.466 1.853,-8.72 3.24,-12.946c3.667,-10.694 6.44,-21.814 11.907,-31.787c1.786,-4.293 4.746,-8.933 2.68,-13.667c2.666,-2.586 5.506,-5.173 7.04,-8.64c4.013,-8.4 9.72,-15.893 16.146,-22.573c3.92,-5.187 7.92,-10.773 13.84,-13.84c-2.96,9.067 -7.813,17.387 -10.266,26.613c-3.16,11.16 -7.654,21.96 -10,33.347c6.72,-11.6 9.453,-24.96 15.626,-36.827c2.947,-8.626 7.72,-16.4 11.427,-24.693c3.76,-7.533 7.987,-14.827 12.533,-21.907c2.134,-3.573 4.28,-7.56 8.294,-9.333c-1.347,6.92 -5.2,13.013 -7.014,19.787c3.12,-2.72 4.76,-6.774 8.347,-9.054c-9.387,19.387 -18.333,39.094 -24.387,59.814c-1.986,6.626 -5.413,12.906 -6.106,19.853c4.84,-7.107 5.933,-15.893 9.32,-23.68c6.306,-14.493 11.013,-30.133 21.453,-42.36c2.72,-2.827 3.8,-7.373 7.96,-8.573c-2.6,6.466 -7.093,12.746 -5.707,20.026c-3.893,7.4 -7.293,15.067 -8.786,23.374c-2.374,12.413 -7.987,24.093 -9.76,36.586c5,-9.933 7.76,-20.986 13.706,-30.466c0.094,-3.107 1.214,-5.854 3.227,-8.214c-0.173,3.334 0.053,6.8 -1.453,9.894c1.68,1.813 3.64,3.44 4.88,5.613c0.973,4.373 0.066,8.867 -0.24,13.28c1.906,-3.307 5.333,-3.867 8.866,-3.6c-3.32,1.693 -6.026,5.453 -10.133,4.187c0.013,1.453 0.053,4.373 0.08,5.84c0.48,-0.92 1.467,-2.76 1.947,-3.68c0.506,0.386 1.493,1.146 2,1.533c1.733,-0.76 2.773,-2.48 4.186,-3.68c-1.12,5.307 -2.306,10.613 -4.906,15.413c-2.507,9.92 -6.347,19.52 -8.16,29.614c3.84,-0.587 7.6,-1.96 11.533,-1.76c11.067,0.333 21.493,-4.587 32.48,-4.947c4.853,-19.92 10.187,-39.827 18.627,-58.56c2.946,-6.533 4.186,-13.787 8.106,-19.867c5.734,-14.586 14.294,-27.773 21.294,-41.733c5.733,-8.013 13.653,-14.653 17.32,-24.027c1.72,-3.786 4.253,-7.106 6.72,-10.426c4.986,-7.76 12.813,-13.067 18.546,-20.2c6.88,-10.56 15.734,-20 26.48,-26.694c3.054,-1.706 6.574,-2 10.014,-1.8c-1.694,3.414 -5.107,5.307 -7.667,7.96c-2.76,2.4 -3.44,6.24 -5.84,8.92c-6.813,8.08 -11.36,17.827 -14.333,27.894c4.666,-3.094 6.013,-8.867 8.96,-13.32c1.826,-3.787 5.546,-6.134 7.413,-9.88c5.053,-9.574 11.76,-18.307 20.213,-25.12c0.534,0.493 1.6,1.48 2.12,1.96c-4.44,6.04 -10.093,11.373 -13.373,18.173c4.28,-4.827 8.24,-9.973 13.067,-14.333c3.093,-2.2 2.906,-6.507 5.68,-8.947c3.6,-3.533 7.12,-7.227 11.333,-10.04c4.613,-3.733 8.933,-8.12 14.48,-10.44c-2.333,4.96 -7.88,6.933 -10.973,11.267c-2.72,3.52 -6.04,6.533 -8.507,10.24c-1.48,2.506 -4.413,3.426 -6.72,4.933c0.987,0.293 2.947,0.88 3.933,1.173c-7.186,12.2 -15.866,23.427 -23.36,35.4c0.827,0.947 1.654,1.894 2.48,2.854c-0.773,1.506 -1.533,3.026 -2.36,4.506c0.054,-2.04 0.147,-4.08 0.28,-6.133c-1.44,1.067 -2.853,2.133 -4.266,3.213c0.773,1.267 1.56,2.534 2.373,3.787c-1.853,0.947 -3.72,1.88 -5.573,2.827c1.146,1.213 2.346,2.386 3.52,3.586c-2.24,-0.24 -4.534,-0.693 -6.694,0.227c1.32,0.8 2.64,1.6 4,2.373c-1.506,3.547 -2.546,7.334 -4.72,10.56c-1.08,1.734 -2.853,3.947 -1.306,5.974c3.666,-6.147 6.906,-12.627 11,-18.574c5.733,-12.48 14.986,-22.8 21.693,-34.693c4.693,-7.947 11.373,-14.4 16.373,-22.12c2.614,-3.147 5.387,-6.173 7.747,-9.52c7.147,-7.973 15.507,-14.813 22.267,-23.16m-42.44,29.613c-1.454,0.187 -3.36,1.84 -2.507,3.4c1.733,1.36 4.947,-2.64 2.507,-3.4m0.266,33.734c4.227,-5.534 9.347,-10.774 11.44,-17.574c-4.76,5.134 -8.773,11.08 -11.44,17.574m-20.64,-4.774c4.027,-1.693 5.68,-5.906 6.787,-9.813c-2.693,2.947 -4.96,6.28 -6.787,9.813m11.134,15.04c-0.214,0.547 -0.654,1.64 -0.867,2.187c2.733,4.507 5.72,-4.693 0.867,-2.187m27.84,18.68c2.213,-2.36 3.626,-5.306 4.746,-8.306c-2.946,1.773 -3.853,5.213 -4.746,8.306m-37.04,-1.533c0.146,4.453 3.96,-2.053 0,0m-19.48,6.067c0.866,-0.134 2.573,-0.414 3.44,-0.547c0.266,-1.587 0.506,-3.187 0.706,-4.787c-1.493,1.694 -2.853,3.494 -4.146,5.334m-0.92,1.84c0.24,4.48 3.866,-2.107 0,0m16.12,1.44c-1.56,0.6 -3.414,4.173 -1.054,4.68c1.12,-0.76 3.027,-4.28 1.054,-4.68m-19.4,16.36c2.386,-1.96 3.893,-4.747 5.226,-7.467c-2.96,1.28 -4.933,4.28 -5.226,7.467m-5.347,8.986c2.2,-0.306 2.613,-2.066 2.707,-3.96c1.6,-1.213 3.106,-2.56 3.493,-4.64c-3.6,1.454 -4.827,5.32 -6.2,8.6m-0.44,1.267c-1.32,0.973 -2.747,3.107 -1.76,4.72c1.853,0.533 3.72,-4.307 1.76,-4.72m18.227,22.88c4.013,-3.213 5.746,-8.707 6.506,-13.56c-2.866,3.973 -5.373,8.68 -6.506,13.56m-0.96,1.253c0.813,0.84 0.813,0.84 0,0m-78.827,2.614c-2.133,3.893 4.453,0.293 0,0m-6.947,15.64c-4.573,13.72 -10.093,27.066 -15.053,40.64c-3,7.773 -3.12,16.48 -7.187,23.866c-1.306,2.334 -2.306,6.427 1.147,7.374c1.867,-3.64 2.053,-7.947 4.307,-11.4c2.213,-2.8 0.693,-6.654 2.213,-9.707c3.52,-7.067 4.507,-15.013 7.333,-22.347c2.707,-6.84 4.467,-13.973 6.534,-21.013c1.933,-7 6.52,-13.04 7.6,-20.307c-2.974,3.88 -5.467,8.2 -6.894,12.894m-105.08,39.333c-2.093,3.96 4.427,0.28 0,0m34.707,4.08c-0.187,-1.173 -0.547,-3.52 -0.733,-4.693c-1.587,5.173 -3.4,10.28 -5.32,15.346c-1.44,2.707 0.466,5.507 0.96,8.187c-0.68,-1.027 -2.054,-3.093 -2.747,-4.133c-0.693,3.986 -1.68,7.893 -2.36,11.88c1.2,0.04 3.587,0.106 4.787,0.133c0.413,-6.36 3.64,-12.027 4.986,-18.187c1,-4.573 3.934,-8.893 4.307,-13.386c-2.16,0.653 -2.653,3.226 -3.88,4.853m-11.48,26.373c0.013,3.694 -0.307,7.734 3.2,10.067c1.227,-2.667 1.76,-5.56 2.013,-8.467c-1.746,-0.533 -3.48,-1.08 -5.213,-1.6m45.027,5.88c0.213,0.774 0.626,2.32 0.826,3.094c-6.266,0.613 -12.426,2.08 -18.6,3.24c-0.8,-1.214 -1.573,-2.44 -2.333,-3.667c0.44,0.853 1.333,2.573 1.787,3.427c-2.36,0.653 -4.667,1.453 -6.974,2.24c0.16,-0.907 0.494,-2.707 0.654,-3.614c-0.28,0.707 -0.854,2.134 -1.134,2.84c-3.933,1.16 -8.04,1.814 -11.853,3.387c9.427,1.013 18.533,-3.213 27.88,-4.147c4.72,-0.48 9.893,-1.226 13.267,-4.906c-1.174,-0.64 -2.347,-1.267 -3.52,-1.894m-44.867,13.08c1.6,-0.106 3.2,-0.213 4.8,-0.333c0.053,-1.48 0.013,-2.973 -0.107,-4.453c-1.52,1.653 -3.12,3.2 -4.693,4.786m94.973,1.147c-0.72,2.107 0.027,2.827 2.267,2.16c0.707,-2.093 -0.04,-2.827 -2.267,-2.16m-185.76,50.853c3.96,-1.64 8.107,-2.946 11.827,-5.133c-4.547,-0.107 -8.4,2.44 -11.827,5.133m12.92,12.84c4.04,-0.68 8.12,-2.213 10.934,-5.32c-4,0.88 -8.027,2.28 -10.934,5.32m122.52,0.107c0.867,0.853 0.867,0.853 0,0m-5.373,1.347c0.16,4.453 3.973,-2.027 0,0m-18.72,2.626c-0.68,2.147 0.08,2.854 2.253,2.147c0.667,-2.12 -0.093,-2.84 -2.253,-2.147m16.72,2.76c0.12,2.36 -0.027,4.707 -0.68,6.987c2.76,-0.173 5.427,0.467 7.893,1.707c-0.36,-0.987 -0.72,-1.96 -1.066,-2.92c2.853,-2.094 2.386,-5.587 2.173,-8.68c-2.8,0.893 -5.56,1.906 -8.32,2.906m-33.92,10.56c-4.467,1.014 -8.173,4.334 -12.853,4.44c-0.814,2.254 -1.414,4.64 -2.787,6.654c-1.627,1.186 -3.667,1.533 -5.52,2.2c1.333,-1.8 3,-3.28 4.587,-4.814c-1.747,-0.16 -3.494,-0.266 -5.227,-0.426c-0.347,3.666 -1.907,7.066 -2.547,10.68c3.8,-1.56 7.174,-4.12 11.24,-5c12.56,-3.307 24.414,-8.694 36.614,-13.04c0.013,-2.774 0,-5.547 -0.04,-8.32c-7.814,2.56 -15.507,5.493 -23.467,7.626m-3,-5.24c-2.12,3.894 4.48,0.2 0,0m-15.453,5.054c-2.08,0.333 -2.094,3.826 0.346,2.4c2.2,-0.2 2.027,-3.827 -0.346,-2.4m51.826,0.32c0.787,0.76 0.787,0.76 0,0m-14.053,4.613c-5.56,2.08 -11.08,4.333 -16.84,5.8c-4.307,1.08 -8,3.813 -12.347,4.787c-2.546,0.533 -4.946,1.573 -6.973,3.213c6.413,0.027 12.173,-3.16 18.04,-5.347c7.547,-3.093 15.667,-4.626 23.027,-8.213c-1.534,-0.827 -3.32,-1.067 -4.907,-0.24m-0.187,4.587c0.227,1.813 1.147,2.12 2.747,0.933c-0.227,-1.827 -1.147,-2.147 -2.747,-0.933m-12.733,4.306c-1.947,3.96 4.48,0 0,0m-31.067,8.027c1.694,0.093 3.387,0.173 5.08,0.227c0.827,-1.2 1.64,-2.4 2.44,-3.6c-2.626,0.8 -5.613,1.16 -7.52,3.373m15.374,-2.84c0.853,0.84 0.853,0.84 0,0m-93.334,1.2c-1.746,0.493 -2.64,3.56 -0.44,4.093c2.867,0.694 3.734,-5.12 0.44,-4.093m68.067,-0.827c-0.333,2.707 -0.387,5.44 -0.187,8.174c2.254,-2.267 2.014,-5.76 0.187,-8.174m0,8.88c0.853,0.854 0.853,0.854 0,0m153,1.707c-1.2,1.587 -0.893,2.507 0.947,2.773c1.186,-1.6 0.866,-2.52 -0.947,-2.773m-171.76,3.613c0.813,0.774 0.813,0.774 0,0m18.707,0.054c0.76,0.773 0.76,0.773 0,0m-18.854,7.16c-1.213,1.586 -0.893,2.493 0.947,2.746c1.187,-1.586 0.867,-2.506 -0.947,-2.746m18.694,2.28c-0.12,2.36 -0.067,4.72 0.16,7.093c1.813,-2.093 2.093,-5.187 -0.16,-7.093m122.8,1.16c0.213,4.506 3.906,-2.107 0,0m14.68,0.053c0.853,0.84 0.853,0.84 0,0m-156.054,3.147c-1.226,0.84 -1.173,4.16 0.76,3.853c1.214,-0.867 1.16,-4.16 -0.76,-3.853m154.387,5.093c-2.04,4.04 4.413,0.2 0,0m-14.253,2.48c-2.067,3.92 4.48,0.187 0,0m-140.64,36.12l1.706,0.08c-0.32,-10.987 0.814,-22.067 -0.72,-32.96c-2.2,10.76 -0.386,21.947 -0.986,32.88m152.893,-13.333c0.533,-0.414 1.6,-1.24 2.147,-1.64c0.52,-5.094 1.88,-10.227 0.693,-15.32c-1.307,5.56 -2.48,11.226 -2.84,16.96m-13.227,-12.92c-0.44,2.146 -0.786,4.306 -0.813,6.506c1.4,-2.133 2.6,-4.4 3.84,-6.626c-0.747,0.026 -2.267,0.093 -3.027,0.12m-0.56,11.4c-2.053,4.066 4.414,0.24 0,0m14.747,8.08c-1.733,0.84 -1.733,1.733 0.013,2.64c1.76,-0.88 1.76,-1.76 -0.013,-2.64m-14.773,1.426c-0.467,3.987 -0.454,8.054 0.32,12.014c1.333,-3.787 2.2,-8.534 -0.32,-12.014m13.84,11.547c0.453,3.387 -1.187,7.653 1.64,10.293c0.306,-6.733 0.386,-13.493 -0.08,-20.213c-2.667,2.56 -1.147,6.653 -1.56,9.92m-13.84,1.653c-2.014,3.947 4.453,0.08 0,0m-0.747,5.6c1.2,1.374 2.413,2.747 3.693,4.04c-0.053,-1.986 -0.146,-3.973 -0.226,-5.96c-0.867,0.48 -2.6,1.44 -3.467,1.92m2.173,5.174c-0.226,2.76 -0.16,5.546 -0.026,8.32c0.76,0.04 2.293,0.133 3.053,0.186c-1.013,-2.84 -1.547,-5.853 -3.027,-8.506m12.494,11.773c-0.707,2.227 -0.014,3.053 2.093,2.467c0.653,-2.254 -0.04,-3.08 -2.093,-2.467m2.04,7.36c1.12,8.76 2.986,17.4 4.84,26.04c0.813,0.293 2.413,0.867 3.226,1.16c-2.706,-7.333 -4.053,-15.013 -5.48,-22.653c-0.066,-1.907 -1.44,-3.214 -2.586,-4.547Z" style="fill:#fff;fill-rule:nonzero;"/><path d="M297.616,22.333c2.52,-0.373 5,0.4 7.52,0.48c6.76,0.387 13.68,-0.68 20.267,1.374c17.666,1.013 34.826,5.72 51.88,10.146c-2.72,4.267 -6.08,8.067 -8.907,12.254c-1.16,2.4 -4.107,1.56 -6.133,1.013c-9.467,-2.92 -19.054,-5.827 -29,-6.427c-4.574,-0.253 -8.694,-2.973 -13.347,-2.52c-9.88,-0.373 -19.973,1.04 -29.64,-1.426c-6.72,-1.027 -13.12,1.8 -19.8,1.52c-17.747,2.733 -35.84,4.36 -53.067,9.84c-23.36,7.026 -45.946,16.8 -66.693,29.666c-13.133,7.214 -25.333,16.12 -36.227,26.4c-10.64,8.347 -20.08,18.2 -28.653,28.627c-9.213,8.867 -15.72,19.92 -22.867,30.4c-1.706,4.4 -6.266,6.693 -8,11.053c-1.64,2.627 -1.946,5.787 -3.213,8.547c-2.093,1.653 -4.32,3.147 -6.533,4.64c2.426,-6.667 7.333,-12.013 9.906,-18.6c1.627,-4.587 4.894,-8.253 7.134,-12.507c1.68,-3.12 4.853,-5.266 5.88,-8.76c-3.654,3.4 -5.6,8.187 -9.014,11.827c-5.4,5.707 -7.146,13.68 -12.306,19.56c-6.934,14.427 -14.16,28.813 -18.534,44.293c2.48,-3.173 3.587,-7.746 7.774,-9.16c0.24,-3.093 0.173,-6.213 0.64,-9.266c1.813,-3.614 3.506,-7.307 5.693,-10.707c1.067,0.373 3.2,1.12 4.267,1.493c-3.534,1.76 -6.187,5.374 -6.147,9.414c0.453,5.013 -4.16,8.8 -3.933,13.773c0.013,4.28 -2.094,8.08 -3.267,12.107c-3.213,10.88 -7.333,21.6 -8.44,32.973c-1.133,5.04 -1.187,10.253 -2.467,15.28c-0.666,5.173 -0.066,10.453 -0.973,15.627c-1.387,5.666 -0.773,11.546 -0.893,17.333c0.12,5.613 -0.507,11.32 0.893,16.84c1.04,4.04 0.373,8.24 0.907,12.347c1.506,6.933 2.453,13.973 3.413,21c1.36,6.76 3.573,13.306 5.013,20.053c2.374,6 3.867,12.347 4.334,18.8c0.72,4.32 5.253,6.4 6.44,10.493c7.24,19.654 17.053,38.267 28.306,55.88c4.507,5.307 7.894,11.467 12.627,16.574c8.547,11.293 19.373,20.6 29.28,30.68c7.813,4.4 12.12,13.226 20.547,16.666c7.773,6.187 16.413,11.107 24.72,16.52c8.48,3.96 16,9.827 24.96,12.76c3.906,1.147 6.533,4.974 10.746,5.28c4.827,0.72 8.774,3.84 13.387,5.187c8.787,2.267 17.213,5.72 26.2,7.187c9.413,2.946 19.6,2.853 28.693,6.826c-6.013,1.054 -11.946,-0.746 -17.626,-2.466c-0.6,1.44 -1.214,2.893 -1.827,4.333c5.187,-0.067 10.467,-0.547 15.587,0.573c3.853,1.08 7.68,-1.546 11.546,-0.4c1.614,0.627 3.16,1.427 4.747,2.174c2.68,-0.747 5.44,-0.96 8.2,-1.174c-0.293,1.187 -0.88,3.547 -1.173,4.734c0.573,-1.507 1.12,-3 1.64,-4.507c6.8,0.32 13.586,0.4 20.4,0.293c12.733,1.174 24.84,-4.813 37.586,-3.453c-1.666,-1.453 -3.346,-2.893 -4.96,-4.4c2.08,0.053 4.16,0.2 6.24,0.24c0.107,0.747 0.32,2.227 0.427,2.973c8.16,-0.893 15.827,-4.066 23.8,-5.933c-0.827,-0.427 -2.453,-1.293 -3.28,-1.733c2.76,-1.8 5.533,-3.76 8.88,-4.28c-1.667,2 -3.68,3.666 -5.48,5.533c4.147,-0.827 8.253,-1.973 12.533,-2c0.734,-1.04 1.467,-2.08 2.214,-3.107c-3.054,2.04 -6.454,2.44 -9.134,-0.52c7.494,-2.44 13.854,-7.626 21.787,-8.893c13.6,-4.68 25.667,-12.827 38.6,-19.013c7.787,-4.6 14.44,-10.947 22.613,-14.92c6.614,-4.694 11.574,-11.52 18.747,-15.507c5.24,-2.88 8.2,-8.627 13.867,-10.84c0.373,-1.773 0.746,-3.587 1.92,-5.04c-0.04,2.067 -0.294,4.133 -0.454,6.2c-0.493,-0.093 -1.493,-0.253 -2,-0.333c-5.04,4.44 -8.786,10.346 -14.96,13.44c-5.053,8.56 -14.96,12.213 -21.506,19.386c10.346,-3.573 18.133,-11.64 26.906,-17.853c-1.853,3.28 -3.52,7.12 -7.293,8.613c-2.36,0.787 -3.333,2.934 -4.12,5.107c-4.853,1.133 -9.84,3.213 -11.107,8.56c-1.92,-1.773 -3.973,-3.347 -6.066,-4.88c-0.827,1.333 -1.627,2.667 -2.4,4.027c0.92,-0.507 2.746,-1.52 3.666,-2.027c0.014,1.973 0.04,3.96 0.107,5.947c-6.933,5.466 -14.787,9.533 -22.24,14.226c-16.747,7.56 -32.333,18.707 -50.853,21.614c-3.32,0.506 -6.134,2.28 -9.08,3.693c-16.067,4.48 -32.534,7.373 -49.027,9.587c-6.4,-0.054 -12.813,-0.067 -19.093,1.333c-7.454,-0.013 -15.027,0.88 -22.387,-0.707c-6.213,-1.28 -12.693,0.227 -18.827,-1.573c-38.306,-4.627 -75.706,-16.853 -109.266,-35.933c-6.854,-4.8 -14.187,-8.814 -21.094,-13.52c-8.573,-6.507 -17.413,-12.64 -25.386,-19.894c-8.187,-8.28 -16.547,-16.386 -24.654,-24.76c-2.6,-3.546 -5.333,-7 -8.533,-10.04c-7.493,-9.586 -14.533,-19.52 -20.747,-29.986c-1.786,-2.827 -3.72,-5.587 -6.293,-7.747c4.4,8.44 10.067,16.187 15.547,23.96c5.173,9.947 13.506,17.64 19.813,26.813c11.813,12.214 23.747,24.4 37.24,34.787c3.36,2.44 6.227,5.467 9.347,8.2c-3.44,2.16 -9.04,0.467 -7.547,-4.293c-1.027,0.52 -2.067,1.04 -3.093,1.573c-2,-1.773 -3.974,-3.56 -5.934,-5.347c0.387,-0.653 1.16,-1.96 1.534,-2.613c-4.334,-0.013 -8.2,-1.96 -11.067,-5.187c0.467,-0.693 1.373,-2.08 1.84,-2.76c-1.173,0.36 -2.347,0.747 -3.507,1.134c-7.706,-9.227 -17.653,-16.507 -24.76,-26.294c-6.906,-6.986 -12.693,-14.946 -17.933,-23.226c-7.307,-9.094 -13.173,-19.2 -18.547,-29.52c-4.413,-9.52 -9.866,-18.587 -13.093,-28.627c-7.12,-15.787 -10.427,-32.933 -15.84,-49.32c-2.293,-7.04 -2.92,-14.44 -4.427,-21.653c0.427,-8.454 -1.973,-16.68 -1.64,-25.134c0.174,-7.666 -0.746,-15.453 1.2,-22.96c1.08,-8.026 -0.92,-16.36 1.627,-24.213c0.013,-6.333 1.813,-12.4 3.027,-18.573c1.8,-14.307 6.6,-27.987 10.466,-41.814c9.08,-23.52 19.734,-46.56 33.96,-67.453c1.307,-0.787 2.787,-1.187 4.214,-1.72c0.2,-0.933 0.466,-1.853 0.786,-2.747c4.88,-5.68 10.907,-10.373 15.32,-16.453c-0.16,-0.667 -0.48,-2.013 -0.626,-2.68c4.106,-6.053 7.96,-12.613 14.053,-16.893c-1.013,2.506 -2.427,4.826 -3.587,7.28c4.16,-2.12 5.787,-6.934 8.934,-10.187c7.933,-6.72 15.426,-14 23.706,-20.307c3.787,-2.333 7.054,-5.373 10.574,-8.08c8.266,-5.533 17,-10.386 25.146,-16.133c13.507,-7.6 27.76,-13.88 42.36,-19.12c11.534,-6.133 24.64,-7.987 37,-11.813c7.907,0.72 14.894,-3.227 22.467,-4.68c3.347,-0.614 6.76,-0.16 10.12,-0.627c12.107,-2.587 24.573,-0.347 36.8,-1.827m-221.307,95.934c-0.84,1.986 -0.32,2.546 1.547,1.68c0.827,-2.027 0.307,-2.587 -1.547,-1.68m-49.786,106.666c-0.72,2.24 -0.027,3.014 2.066,2.32c0.694,-2.226 0.014,-3 -2.066,-2.32m-1.04,5.28c0.826,0.8 0.826,0.8 0,0m-1.467,4.534c-1.2,1.586 -0.88,2.52 0.947,2.786c1.186,-1.586 0.866,-2.506 -0.947,-2.786m-1.547,5.24c-1.2,1.613 -0.893,2.56 0.92,2.84c1.174,-1.627 0.867,-2.574 -0.92,-2.84m-3.76,13.24c-1.946,1.266 0.2,4.826 2.134,3.173c1.92,-1.32 -0.174,-4.693 -2.134,-3.173m-1.16,9.093c-0.52,6.16 -2.4,12.093 -2.96,18.24c-1.24,8.453 0.694,17.187 -1.786,25.467c-0.054,6.186 -0.654,12.466 0.52,18.586c0.88,5.934 0.52,12 1.706,17.907c0.787,9.667 0.774,19.64 4.654,28.747c1.346,13.16 6.96,25.453 11.293,37.88c1.92,6.506 4.72,12.866 8.867,18.266c-1.534,-6.52 -5.987,-12.12 -6.574,-18.906c-0.28,-6.787 -3.293,-13.014 -6.053,-19.107c-2.347,-8.027 -3.68,-16.307 -5.547,-24.44c-0.906,-3.693 -2.92,-7.16 -2.693,-11.053c0.28,-6.814 -2.4,-13.267 -3.08,-19.974c-0.307,-15.946 -0.533,-31.906 0.16,-47.826c2.533,-7.614 -0.133,-15.96 3.4,-23.307c-0.467,-0.12 -1.427,-0.36 -1.907,-0.48m14.52,167.107c1.214,3.04 1.747,6.893 4.8,8.706c-1.146,-3.12 -2.533,-6.226 -4.8,-8.706m9.12,2.253c-0.866,1.56 0.64,4.68 2.534,4.467c0.84,-1.494 -0.747,-4.694 -2.534,-4.467m2.907,6.213c0.2,4.48 3.867,-2.12 0,0m1.48,3.107c0.173,4.48 3.92,-2.093 0,0m2.573,2.44c-1.706,0.893 -1.693,1.787 0.027,2.707c1.733,-0.934 1.733,-1.827 -0.027,-2.707m-8.466,1.613c-1.987,4.027 4.453,0.16 0,0m11.066,3.854c0.774,0.76 0.774,0.76 0,0m6.374,10.893c-1.094,1.373 1.013,3.733 2.533,3.093c0.933,-1.386 -0.987,-3.826 -2.533,-3.093m14.773,21.44c4.387,5.333 7.933,11.507 13.773,15.467c-3.96,-5.587 -7.773,-11.88 -13.773,-15.467m19.48,20.76c1.787,4.613 5.24,8.627 9.813,10.627c-1.706,-4.707 -6.613,-7.027 -9.813,-10.627m27.4,40.12c0.787,0.8 0.787,0.8 0,0m314.787,5.88c-2.934,1.933 -6.52,2.973 -8.8,5.813c2.933,-0.52 5.48,-2.026 7.6,-4.066c1.506,0.24 3.013,0.493 4.533,0.76c1.8,-3.387 4.32,-6.254 6.84,-9.12c-3.907,1.346 -6.693,4.52 -10.173,6.613m-37.427,19.52c0.787,0.8 0.787,0.8 0,0m-184.04,9.4c0.76,0.747 0.76,0.747 0,0m4.16,1.373c0.253,1.814 1.187,2.12 2.8,0.934c-0.267,-1.814 -1.2,-2.12 -2.8,-0.934m5.28,1.08c-1.48,1.88 1.773,4.267 3.093,2.214c1.614,-1.96 -1.72,-4.134 -3.093,-2.214m4.6,1.534c1.933,1.653 4.28,2.653 6.6,3.653c0.387,-0.453 1.173,-1.36 1.56,-1.813c-2.68,-0.814 -5.36,-1.68 -8.16,-1.84Z" style="fill:#fff;fill-rule:nonzero;"/><path d="M492.363,24.853c3.613,-0.866 0.973,5.96 -1.734,4.534c-0.92,-1.56 0.694,-3.427 1.734,-4.534Z" style="fill:#fff;fill-rule:nonzero;"/><path d="M448.843,40.787c1.426,-5.56 6.76,-8.974 10.84,-12.627c-3.267,4.453 -6.48,9.187 -10.84,12.627Z" style="fill:#fff;fill-rule:nonzero;"/><path d="M497.376,107.867c9.52,9 18.533,18.453 26.813,28.586c-5.626,1.827 -11.053,4.214 -16.533,6.427c-5.693,-7.6 -12.24,-14.573 -17.587,-22.44c1.36,-4.707 4.227,-8.827 7.307,-12.573Z" style="fill:#fff;fill-rule:nonzero;"/><path d="M557.509,137c7.774,-1.453 16.894,-0.053 22.414,6.093c3.213,3.267 4.28,7.894 5.226,12.227c-0.853,4.907 -2.28,10.307 -6.36,13.547c-4.826,4.133 -11.466,5.813 -17.706,5.453c-4.787,-0.32 -9.307,1.52 -13.774,2.933c-19.786,6.054 -38.746,15.12 -55.546,27.24c-3.667,2.267 -5.547,6.307 -8.16,9.56c7.48,6.88 16.32,12.08 24,18.76c18.306,13.574 35.92,28.014 53.68,42.267c4.266,2.787 7.386,6.973 11.826,9.547c3.6,3.56 7.267,7.013 11.48,9.853c5.667,6.44 13.24,10.72 18.88,17.187c13.32,13.706 28.347,26.12 38.587,42.466c3.72,6.24 3.507,13.787 2.733,20.747c-3.186,9.6 -10.453,17.24 -18.36,23.2c-15.346,7.493 -32.16,11.347 -48.733,15.053c-14.84,2.76 -29.427,6.894 -44.413,8.92c-26.454,4.587 -52.96,8.587 -79.614,11.36c-5.093,1.747 -10.64,0.44 -15.693,2.414c-7.907,-0.187 -15.467,2.24 -23.373,2.026c-6.04,1.814 -12.76,2.347 -18.654,-0.253c-6.706,-4.133 -12.546,-11.227 -12.173,-19.56c0.84,-5.6 3.013,-11.707 8.28,-14.587c6.6,-3.6 14.187,-4.64 21.387,-6.453c10.6,-1.6 20.746,-5.187 31.266,-7.16c10.414,-2.627 21.014,-4.44 31.347,-7.36c9.72,-0.013 18.507,7.013 22.4,15.68c0.947,2.84 4.48,1.413 6.667,1.68c31.906,-4.84 63.52,-14.013 91.866,-29.72c-5.786,-5.427 -9.88,-12.347 -15.813,-17.627c-3.893,-3.293 -6.093,-8.013 -9.853,-11.426c-13.2,-13.027 -26.067,-26.414 -39.48,-39.214c-7.054,-4.32 -11.6,-11.573 -18.4,-16.2c-4.774,-3.2 -7.894,-8.333 -12.96,-11.146c-13.76,-12.214 -28.654,-23.16 -44.094,-33.2c-11.146,-8.92 -22.013,-21.56 -21.133,-36.747c-0.307,-6.373 4.68,-11.48 9.707,-14.667c10.613,-6.56 21.6,-12.533 32.866,-17.906c7.64,-3.52 14.8,-8.054 22.814,-10.747c11.2,-5.453 22.693,-10.347 34.386,-14.64c8,-2 14.414,-7.787 22.48,-9.6Z" style="fill:#fff;fill-rule:nonzero;"/><path d="M47.936,188.92c1.56,0.96 1.48,1.933 -0.267,2.907c-1.586,-1 -1.493,-1.96 0.267,-2.907Z" style="fill:#fff;fill-rule:nonzero;"/><path d="M539.443,194.307c5.346,-1.814 10.506,-4.294 16.12,-5.24c5.36,11.066 9.706,22.573 13.706,34.213c2.467,6.84 7.227,14.133 3.387,21.44c1.56,9.013 4.44,17.84 5.08,27.027c-2.92,-2.787 -5.387,-6.107 -8.853,-8.24c-2.734,-1.64 -5.28,-3.814 -6.467,-6.84c-3.413,-9.187 -2.853,-20.054 -9.267,-27.947c-1.693,-2.707 -2.533,-5.813 -3.426,-8.827c-2.547,-8.866 -6.76,-17.106 -10.28,-25.586Z" style="fill:#fff;fill-rule:nonzero;"/><path d="M42.829,191.4c0.854,0.853 0.854,0.853 0,0Z" style="fill:#fff;fill-rule:nonzero;"/><path d="M265.403,193.08c1.946,0.36 2.133,4.307 0.106,4.653c-2.133,-0.466 -2.306,-4.2 -0.106,-4.653Z" style="fill:#fff;fill-rule:nonzero;"/><path d="M261.643,198.44c2.12,-0.68 2.826,0.08 2.12,2.293c-2.12,0.68 -2.827,-0.093 -2.12,-2.293Z" style="fill:#fff;fill-rule:nonzero;"/><path d="M179.336,205.48c2.067,-2.32 4.947,-3.627 7.8,-4.707c-1.133,2.454 -2.867,4.494 -4.52,6.587c-6.307,9.053 -10.64,19.427 -12.56,30.293c-0.747,-0.36 -2.227,-1.066 -2.96,-1.426c0.853,2.4 1.693,4.813 2.36,7.293c-1.413,-1.32 -2.827,-2.613 -4.253,-3.893c0.653,3.12 3.12,6.266 1.52,9.506c-4.214,12.52 -7.227,25.414 -9.68,38.387c-1.094,3.947 -0.4,8.173 -1.947,12.027c-3.52,-17.48 5.8,-33.654 8.8,-50.4c-2.52,3.84 -3.307,8.466 -4.893,12.72c-3.107,8.493 -5.827,17.253 -6.467,26.333c-1.693,5.2 -0.933,10.667 -1.173,16.027c-1.387,3.106 -4.734,4.373 -7.907,4.613c1.32,-19.667 6.987,-38.733 12.627,-57.533c5.933,-16.054 11.213,-33.12 23.253,-45.827m-15.2,40.747c-2.04,4 4.467,0.213 0,0Z" style="fill:#fff;fill-rule:nonzero;"/><path d="M172.083,237.187c4.453,0.24 -2.12,3.92 0,0Z" style="fill:#fff;fill-rule:nonzero;"/><path d="M128.163,324.053c2.173,-0.8 4.36,-1.626 6.64,-2.093c-2.067,2.227 -4.64,3.88 -7.16,5.547c0.133,-0.867 0.386,-2.587 0.52,-3.454Z" style="fill:#fff;fill-rule:nonzero;"/><path d="M125.296,327.56c2.347,-0.227 1.907,3.507 -0.213,3.333c-2.454,0.187 -1.974,-3.48 0.213,-3.333Z" style="fill:#fff;fill-rule:nonzero;"/><path d="M555.269,344.293c5.294,4.174 2.907,11.68 1.054,17.08c-1.96,4.774 -0.027,11.52 -5.347,14.427c1.373,-5.613 0.253,-11.667 2.813,-16.96c1.96,-4.613 1.227,-9.693 1.48,-14.547Z" style="fill:#fff;fill-rule:nonzero;"/><path d="M253.963,346.027c1.906,-0.64 2.56,-0.027 1.946,1.826c-1.906,0.614 -2.546,0 -1.946,-1.826Z" style="fill:#fff;fill-rule:nonzero;"/><path d="M284.336,377.933c0.107,-4.08 -1.4,-8.413 0.653,-12.226c2.12,3.826 -0.066,8.133 0.76,12.226c-0.346,0 -1.053,0 -1.413,0Z" style="fill:#fff;fill-rule:nonzero;"/><path d="M283.936,382.6c1.68,-1.24 3.933,1.707 2.147,2.947c-1.787,1.32 -3.774,-1.64 -2.147,-2.947Z" style="fill:#fff;fill-rule:nonzero;"/><path d="M144.323,401.44c-0.667,-2.387 -2.48,-5.8 0.853,-7.027c4.507,4.734 2.44,12.12 3.84,18.067c3.827,10.453 5.973,21.44 9.067,32.12c-0.667,-0.493 -1.987,-1.48 -2.64,-1.973c-2.734,-6.334 -4.84,-12.974 -6.187,-19.734c-3.493,-6.64 -3.2,-14.333 -4.933,-21.453Z" style="fill:#fff;fill-rule:nonzero;"/><path d="M148.163,395.347c3.933,-2.08 0.173,4.466 0,0Z" style="fill:#fff;fill-rule:nonzero;"/><path d="M279.576,395.533c4.48,0.16 -2.04,4.014 0,0Z" style="fill:#fff;fill-rule:nonzero;"/><path d="M551.203,433.027c2.72,-1.614 6.093,-1.614 9.106,-2.44c-5.2,13.133 -12.786,25.16 -20.293,37.08c-8.893,13.813 -19.787,26.106 -30.587,38.426c-6.933,7.374 -14.253,14.387 -22.12,20.76c-4.146,4.414 -8.866,8.16 -13.88,11.52c-11.88,9.814 -25.04,17.92 -38.226,25.84c-11.68,8.16 -25.374,12.494 -37.987,18.88c-6.387,3.187 -13.413,4.614 -20.187,6.707c-15.586,5.907 -32.213,8.133 -48.453,11.413c-5.853,1.12 -11.933,-0.426 -17.747,1.054c-4.893,1.426 -10.04,0.773 -15.053,0.893c-9.293,-0.12 -18.6,0.213 -27.893,-0.133c-8.027,-1.534 -16.254,-1.494 -24.2,-3.534c1.253,-1.093 2.546,-2.16 3.853,-3.2c-0.28,-0.693 -0.84,-2.08 -1.133,-2.773c8.666,2.893 17.893,1.227 26.706,3.32c14.24,0.4 28.494,0.12 42.734,0.08c13.066,-1.733 26.253,-2.573 39.16,-5.48c7.226,-2.067 14.28,-4.92 21.773,-5.907c8.987,-2.68 17.573,-6.52 26.387,-9.72c22.013,-10.346 43.773,-21.72 62.853,-36.986c3.947,-3.174 8.547,-5.494 12.133,-9.12c3.32,-3.347 6.614,-6.747 10.547,-9.4c4.947,-3.587 8.347,-8.694 12.173,-13.32c8.454,-7.614 14.72,-17.16 22.04,-25.774c3.707,-6.853 8.934,-12.72 12.894,-19.44c5.506,-9.373 10.96,-18.813 15.4,-28.746m-303.067,164.16c4.627,2.12 9.987,1.36 14.827,2.92c-3.454,-4.814 -9.774,-3.28 -14.827,-2.92m17.12,1.08c-0.68,2 0.147,2.666 2.493,1.986c0.667,-2.013 -0.16,-2.68 -2.493,-1.986Z" style="fill:#fff;fill-rule:nonzero;"/><path d="M221.269,433.387c2.254,-0.267 3.174,3.746 2.2,5.4c-2.426,0.506 -3.36,-3.76 -2.2,-5.4Z" style="fill:#fff;fill-rule:nonzero;"/><path d="M537.869,446.6c3.654,-4.107 3.067,-11.427 9.12,-13.333c-3.666,9.16 -9,17.506 -14.08,25.933c-2.333,4.48 -5.746,8.24 -8.946,12.12c-0.72,-2.32 -1.467,-4.64 -1.907,-7.027c0.907,1.334 1.773,2.694 2.613,4.094c4.92,-6.947 8.947,-14.427 13.2,-21.787Z" style="fill:#fff;fill-rule:nonzero;"/><path d="M159.043,444.573c2.96,4.187 5.466,8.734 7.453,13.48c-1.56,-0.066 -2.693,-0.746 -3.4,-2.053c-1.987,-3.547 -4.187,-7.227 -4.053,-11.427Z" style="fill:#fff;fill-rule:nonzero;"/><path d="M290.576,458.027c4.427,0.213 -2.067,3.933 0,0Z" style="fill:#fff;fill-rule:nonzero;"/><path d="M525.643,459.653c2.4,0.014 0.666,3.187 -0.854,3.267c-2.28,0.013 -0.613,-3.227 0.854,-3.267Z" style="fill:#fff;fill-rule:nonzero;"/><path d="M513.083,478.827c2.253,-4.254 4.44,-8.747 9.506,-10.16c-1.693,4.653 -6.026,7.053 -9.506,10.16Z" style="fill:#fff;fill-rule:nonzero;"/><path d="M510.149,482.147c0.56,-0.027 1.68,-0.08 2.24,-0.107c-3.24,3.08 -4,7.72 -6.88,11.053c-2.28,2.934 -4.253,6.24 -7.333,8.44c-2.2,0.854 -4.52,1.347 -6.72,2.174c2.307,-2.387 4.48,-4.974 7.347,-6.707c2.893,-1.733 4.12,-5.013 5.893,-7.707c1.68,-2.546 5.307,-3.746 5.453,-7.146Z" style="fill:#fff;fill-rule:nonzero;"/><path d="M501.563,483.453c3.24,-1.213 1.493,3.76 -0.8,3.36c-1.987,-0.386 -0.467,-3.013 0.8,-3.36Z" style="fill:#fff;fill-rule:nonzero;"/><path d="M490.016,498.347c1.907,-4.467 6.147,-7.294 9.88,-10.12c-2.64,3.933 -6,7.4 -9.88,10.12Z" style="fill:#fff;fill-rule:nonzero;"/><path d="M198.029,491.453c0.8,0.227 2.414,0.68 3.227,0.907c2.027,5.053 5.493,9.813 5.373,15.48c-3.306,-5.213 -6.04,-10.773 -8.6,-16.387Z" style="fill:#fff;fill-rule:nonzero;"/><path d="M326.669,502.613c1.614,-1.133 4.067,1.574 2.467,2.96c-1.733,1.2 -3.987,-1.52 -2.467,-2.96Z" style="fill:#fff;fill-rule:nonzero;"/><path d="M484.563,509.04c2.72,0.053 5.373,-0.453 7.893,-1.48c-3.453,3.2 -6.267,8.013 -11.573,7.92c1.16,-2.187 2.466,-4.293 3.68,-6.44Z" style="fill:#fff;fill-rule:nonzero;"/><path d="M348.736,515.507c2.013,-0.16 3.333,3.16 2.853,4.853c-1.733,-0.28 -3.6,-3.147 -2.853,-4.853Z" style="fill:#fff;fill-rule:nonzero;"/><path d="M368.416,526c2.52,-1.187 3.747,4.12 1.307,4.533c-1.44,-0.773 -2.494,-3.146 -1.307,-4.533Z" style="fill:#fff;fill-rule:nonzero;"/><path d="M377.256,538.76c1.68,0.467 3,3.813 2.413,5.52c-2.426,0.187 -3.506,-3.72 -2.413,-5.52Z" style="fill:#fff;fill-rule:nonzero;"/><path d="M124.896,544.52c8.44,5.813 17.107,11.28 25.84,16.64c6.893,3.627 13.96,6.893 20.88,10.44c-3.84,0.427 -7.707,0.08 -11.547,0.347c4.2,2.48 8.64,4.493 13.027,6.626c-0.28,-1.106 -0.84,-3.333 -1.12,-4.44c1.813,1.134 3.587,2.347 5.307,3.64c-1.12,0.507 -3.374,1.494 -4.494,2c-4.853,-2.52 -10.28,-3.64 -15,-6.4c-4.186,-2.36 -8.533,-4.386 -12.88,-6.386c1.147,-0.96 2.294,-1.907 3.454,-2.84c-5.88,-2.774 -11.254,-6.44 -16.654,-10.027c-1.893,-1.32 -2.746,-3.547 -3.96,-5.4c-1.306,0.347 -2.613,0.707 -3.92,1.053c0.36,-1.76 0.707,-3.506 1.067,-5.253m28.96,21.333c-0.547,1.867 0.107,2.56 1.973,2.067c0.56,-1.88 -0.106,-2.573 -1.973,-2.067m3.867,2.974c-0.574,1.8 0.093,2.453 2.013,1.96c0.56,-1.814 -0.12,-2.467 -2.013,-1.96Z" style="fill:#fff;fill-rule:nonzero;"/><path d="M175.589,573.173c4.147,2.254 8.774,3.907 12.267,7.174c-4.36,-1.707 -9.747,-2.894 -12.267,-7.174Z" style="fill:#fff;fill-rule:nonzero;"/><path d="M356.403,576.787c2.133,-0.814 2.853,-0.107 2.133,2.12c-2.133,0.786 -2.84,0.08 -2.133,-2.12Z" style="fill:#fff;fill-rule:nonzero;"/><path d="M344.283,580.907c1.186,-1.08 2.44,-2.094 3.746,-3.014c2.12,0.734 4.08,1.854 6.014,3c-3.254,0.214 -6.52,0.24 -9.76,0.014Z" style="fill:#fff;fill-rule:nonzero;"/><path d="M191.336,579.347c8.573,3.68 17.333,7 26.6,8.493c6.373,2.48 13.307,2.76 19.6,5.493c-4.533,0.187 -9.587,1.507 -13.613,-1.24c-2.094,-1.626 -4.587,-1.413 -7.027,-0.933c-4.987,-3.133 -10.933,-4.827 -16.773,-5.547c-3.48,-1.053 -7.2,-2.76 -8.787,-6.266Z" style="fill:#fff;fill-rule:nonzero;"/><path d="M290.043,586.773c6.066,-1.16 12.786,-3.146 18.506,0.28c-6.146,0.774 -12.36,0.16 -18.506,-0.28Z" style="fill:#fff;fill-rule:nonzero;"/><path d="M272.336,586.253c0.893,-1.133 4.227,-1.2 4,0.734c-0.92,1.133 -4.253,1.213 -4,-0.734Z" style="fill:#fff;fill-rule:nonzero;"/><path d="M239.989,591.867c1.787,0.52 3.56,1.08 5.32,1.693c-1.893,2.053 -3.853,4.067 -5.986,5.88c-0.867,-1.867 0.013,-3.347 1.373,-4.6c-0.173,-0.747 -0.52,-2.227 -0.707,-2.973Z" style="fill:#fff;fill-rule:nonzero;"/></svg>