<?xml version="1.0" encoding="UTF-8" standalone="no"?><!DOCTYPE svg PUBLIC "-//W3C//DTD SVG 1.1//EN" "http://www.w3.org/Graphics/SVG/1.1/DTD/svg11.dtd"><svg width="100%" height="100%" viewBox="0 0 430 486" version="1.1" xmlns="http://www.w3.org/2000/svg" xmlns:xlink="http://www.w3.org/1999/xlink" xml:space="preserve" style="fill-rule:evenodd;clip-rule:evenodd;stroke-linejoin:round;stroke-miterlimit:1.41421;"><path d="M247.92,3.013c1.32,-2.706 4.427,-2.68 7.014,-3.013c0.986,4.4 1.2,8.987 0.2,13.4c-0.347,1.68 -0.707,3.36 -1.054,5.027c1.28,-1.507 2.574,-3.027 3.88,-4.52c2.067,-3.387 5.814,-4.24 9.507,-4.294c0.573,3.254 0.48,9.12 4.96,9.147c0.6,-0.893 1.813,-2.693 2.413,-3.6c3.547,2.493 6.734,5.44 9.507,8.773c4.973,6.507 14.2,8.547 17.347,16.707c1.16,2.92 1.986,5.96 2.933,8.947c0.307,-3.134 0.52,-6.267 0.92,-9.387c0.173,-1.16 0.533,-3.467 0.707,-4.627c3.306,2.8 7.146,5.587 8.386,9.974c2.64,8.706 2.534,18 1.507,26.96c-0.107,0.693 -0.32,2.08 -0.427,2.786c1.68,1.414 3.454,-0.853 4.574,-1.973c3.6,-2.453 7.413,-4.56 11.346,-6.413c0.534,7.413 -2.653,14.186 -6.106,20.506c-0.734,1.48 -1.52,2.947 -2.014,4.52c1.12,4.04 3.547,7.667 4.04,11.907c0.747,7.933 -0.026,15.907 -0.8,23.813c-1.386,19.494 0.814,39.054 -0.653,58.56c-1.067,4.8 -1.853,9.694 -1.987,14.627l-0.04,1.28c-0.346,5.533 -0.866,11.067 -1.226,16.6c-1.667,-0.453 -3.334,-0.907 -4.987,-1.36c-0.8,-6.093 -0.827,-12.24 -0.787,-18.36c6.16,-25.547 1.547,-51.96 4.667,-77.8c0.467,-5.547 1.6,-11.173 0.653,-16.733c-1.293,-5.08 -5.226,-8.907 -7.186,-13.68c3.533,-3.8 7.44,-7.4 9.306,-12.387c-5.8,2.08 -11.653,4.027 -17.72,5.213c4.254,-11 8.054,-23.106 4.107,-34.8c-0.08,0.667 -0.213,1.974 -0.293,2.64c-2.294,4.494 -5.347,8.56 -8.947,12.08c-1.187,-1.466 -3.467,-2.533 -3.133,-4.733c0.186,-6.213 0.533,-12.467 -0.747,-18.6c-2.12,0.333 -4.213,0.653 -6.307,1c-3.573,-6.44 -7.693,-12.6 -12.68,-18.04c-2.013,4.173 -3.76,8.467 -5.293,12.827c-1.333,0.893 -2.667,1.773 -3.987,2.653c-1.466,-4.04 -2.68,-8.173 -3.586,-12.373c-0.64,-2.974 -1.574,-5.854 -2.547,-8.734c-1.773,1.934 -3.52,3.88 -5.213,5.867c-1.027,1.173 -2.04,2.347 -3.04,3.52c-2.867,-0.093 -5.734,-0.227 -8.587,-0.2c0.373,-5 1.16,-9.96 2.027,-14.893c-8.28,5.533 -15.24,15.04 -26.174,14.666c-0.373,-2.28 -0.746,-4.56 -1.12,-6.84c1.2,-2.013 2.254,-4.106 3.307,-6.2c-12.187,4.12 -24.68,7.667 -36.333,13.187c-2.627,1.32 -5.16,2.787 -7.694,4.267c-1.653,-0.107 -3.28,-0.32 -4.88,-0.667c-0.92,-1.467 -1.626,-3.04 -2.36,-4.587c0.974,-1.373 1.96,-2.72 2.96,-4.08c-3.373,1.134 -6.693,2.467 -9.72,4.374c-10.466,6.546 -21.373,13.12 -29.013,23.066c-4.533,5.507 -6.907,12.734 -12.867,17c-0.8,-2.786 -2.48,-5.626 -1.68,-8.6c1.494,-5.813 4.694,-10.986 6.907,-16.533c-6.467,4.947 -12.28,11.32 -14.413,19.373c-1.147,2.2 -1.027,6.28 -4.2,6.454c-2.094,-1.694 -3.88,-3.72 -5.72,-5.654c-1.48,5.2 -3.12,10.52 -2.707,16c0.32,5.907 3.44,11.014 6.067,16.12c-2.88,0.134 -5.747,0.294 -8.627,0.214c-3.24,-1 -6.213,-2.667 -9.253,-4.134c2.226,4.08 4.786,8.054 8.413,11.027c-1.88,5.533 -5.32,10.867 -4.747,16.933c0.974,12.6 4.68,24.84 5.214,37.507c0.546,14.747 2.12,29.427 4.173,44.04c1.453,8.987 3.973,17.88 3.587,27.08l-0.054,1.32c-2,-0.08 -4,-0.16 -6,-0.253c-0.306,-2.907 -0.64,-5.827 -1.066,-8.72c-0.454,-3.08 -0.84,-6.174 -1.254,-9.254c-0.373,-2.466 -0.8,-4.906 -1.28,-7.346c-3.733,-18.04 -4.36,-36.52 -5.08,-54.867c-1.453,-11.187 -4.746,-22.187 -4.266,-33.587c-0.267,-4.16 2.346,-7.68 3.053,-11.64c-0.587,-1.8 -1.427,-3.493 -2.12,-5.24c-1.653,-4.746 -0.88,-9.933 -0.147,-14.786c1.254,0.813 2.507,1.653 3.76,2.493c1.8,1.28 3.534,2.64 5.28,3.987c-0.24,-1.934 -0.506,-3.867 -0.693,-5.8c-1.093,-12.387 2.653,-24.774 9.52,-35.04c1.147,0.04 2.293,0.106 3.453,0.16c0.427,1.72 0.854,3.453 1.294,5.186c1.266,-1.626 2.533,-3.253 3.88,-4.813c9.746,-8.907 18.826,-18.893 30.48,-25.373c0,1.293 0,2.6 0,3.906c-0.64,0.827 -1.947,2.467 -2.6,3.294c-0.8,1.28 -1.534,2.626 -2.227,3.973c-0.787,1.52 -1.587,3.04 -2.4,4.533c1.68,-1.026 3.387,-2.026 5.12,-2.946c8.653,-4.04 15.6,-10.8 24.147,-15c3.853,-1.96 7.786,-3.747 11.706,-5.587c4.174,-1.213 8.36,-2.413 12.467,-3.907c0.48,0.614 1.453,1.84 1.933,2.454c-1.586,1.786 -3.173,3.56 -4.76,5.333c2.427,-0.693 4.84,-1.387 7.294,-1.973c10.266,-2.2 20.013,-6.2 29.76,-10.027c2.24,-0.613 5.12,-2.253 6.96,0.04c-2.974,1.04 -2.667,4.547 -2.36,7.053l-0.494,0.747c-0.933,1.027 -2,3.56 -0.04,4.12c1.2,-0.28 2.24,-0.907 3.107,-1.867c5.2,-3.826 10.373,-7.866 13.853,-13.4m22.84,15.974c-0.053,2.48 -0.133,5.68 2.76,6.626c0.92,-2.973 0.854,-5.92 -2.76,-6.626Z" style="fill:#020101;fill-rule:nonzero;"/><path d="M313.667,249.147c1.72,-0.307 3.453,-0.6 5.187,-0.894c-0.907,8.76 -0.494,17.56 -0.96,26.347c-1.107,8.893 -0.134,17.96 -1.814,26.8c-3,7.573 -6.186,15.107 -10.666,21.933c-1.814,4.294 -4.907,7.72 -8.814,10.214c-8.08,8.386 -17.173,15.8 -26.653,22.56c-4.693,4.666 -8.48,10.24 -13.8,14.293c-4.747,3.187 -9.773,5.96 -14.973,8.32c-3.414,0.32 -6.854,0.293 -10.214,0.987c-7.266,2.28 -15.28,5.613 -22.586,1.546c-7.174,-2.026 -15.067,-1.386 -21.734,-5.213c-2.586,-1.427 -5.093,-2.973 -7.626,-4.48c-3.107,-2.64 -5.774,-5.747 -8.614,-8.653c-5.373,-4.467 -12,-7.094 -17.306,-11.694c-7.067,-4.346 -13.014,-10.146 -19.867,-14.773c-5.827,-8.053 -11.773,-16.173 -15.787,-25.333c-3.146,-9.067 -3.213,-18.814 -4.946,-28.187c-0.454,-3.333 -0.867,-6.667 -1.374,-9.987c-0.333,-2.493 -0.76,-4.96 -1.08,-7.453c-0.306,-3.107 -0.373,-6.24 -0.373,-9.36c1.667,1.413 3.813,2.627 4.413,4.907c4.107,11.933 5.134,24.6 6.814,37.026c0.493,5.88 4.76,10.24 7.48,15.187c2.493,4.253 3.973,9.08 6.986,13.027c3.334,4.32 8.494,6.586 12.374,10.346c3.866,3.654 6.88,8.494 12,10.6c4.48,1.88 8.653,4.467 11.786,8.24c8.174,8.867 18.28,18.227 31.04,18.56c3.894,0.174 7.654,1.254 11.44,2.08c5.44,1.24 10.64,-1.48 15.88,-2.546c4.147,-1.04 8.614,-0.64 12.627,-2.267c8.973,-4.2 16.387,-11.147 22.227,-19.067c2.813,-3.986 6.533,-7.186 10.893,-9.386c4.92,-2.454 7.6,-7.414 11.013,-11.467c3.6,-4.387 9.067,-6.933 12.174,-11.787c2.946,-4.573 4.12,-9.986 6.533,-14.826c2.107,-4.574 5.453,-8.814 5.547,-14.067c0.64,-13.853 1.093,-27.747 2.773,-41.533Z" style="fill:#020101;fill-rule:nonzero;"/><path d="M235.08,12.147c4.307,-3.014 7.814,-7.267 12.84,-9.134c-3.48,5.534 -8.653,9.574 -13.853,13.4c-0.76,-0.573 -2.307,-1.693 -3.067,-2.253l0.494,-0.747c1.306,-1.973 4.133,-4.6 2.36,-7.053c-1.84,-2.293 -4.72,-0.653 -6.96,-0.04c-9.747,3.827 -19.494,7.827 -29.76,10.027c-0.48,-0.64 -1.454,-1.934 -1.934,-2.587c0.507,-2.04 1.027,-4.093 1.534,-6.133c-5.84,1.4 -11.387,3.76 -16.534,6.813c-3.92,1.84 -7.853,3.627 -11.706,5.587c-8.547,4.2 -15.494,10.96 -24.147,15c-0.68,-0.4 -2.04,-1.187 -2.72,-1.587c0.693,-1.347 1.427,-2.693 2.227,-3.973c1.573,0.986 3.16,1.973 4.746,2.96c-0.693,-2.094 -1.413,-4.174 -2.146,-6.254c0,-1.306 0,-2.613 0,-3.906c-11.654,6.48 -20.734,16.466 -30.48,25.373c-1.734,-0.173 -3.454,-0.293 -5.174,-0.373c-1.16,-0.054 -2.306,-0.12 -3.453,-0.16c-6.867,10.266 -10.613,22.653 -9.52,35.04c-1.533,0.6 -3.067,1.2 -4.587,1.813c-1.253,-0.84 -2.506,-1.68 -3.76,-2.493c2.187,-0.334 4.4,-0.64 6.614,-0.907c0.44,-7.107 -0.36,-14.507 2.226,-21.293c1.694,-4.694 3.894,-9.174 6.4,-13.467c3.814,-0.293 8.254,0.467 11.347,-2.307c7.933,-6.706 15.293,-14.08 23.2,-20.8c2.4,-2.333 5.893,-2.266 9,-2.733c0.227,2.76 0.413,5.533 0.6,8.307c7.907,-4.68 15.667,-9.68 24.213,-13.134c7.894,-3.173 15.307,-8.493 24.134,-8.426c0.106,2.613 0.2,5.213 0.333,7.826c8.107,-3.4 16.76,-5.266 24.72,-9.026c3.84,-1.894 8.2,-1.44 12.347,-1.32c0.12,2.653 0.266,5.306 0.466,7.96Z" style="fill:#3c2f1e;fill-opacity:0.42;fill-rule:nonzero;"/><path d="M273.72,14.32c2.68,0.16 5.934,-0.507 7.974,1.733c4.466,4.347 7.853,9.867 13.386,13.04c3.96,2.134 6.307,6.027 8.227,9.934c0.507,-1.494 1.027,-2.974 1.547,-4.467c4.04,0.8 9.52,1.293 10.64,6.16c4.813,10.027 0.573,21 2.053,31.507c4.627,-3.787 9.453,-8.16 15.96,-7.174c0.507,8.147 -0.8,16.507 -5.773,23.214c-0.547,-0.214 -1.654,-0.64 -2.2,-0.854c3.453,-6.32 6.64,-13.093 6.106,-20.506c-3.933,1.853 -7.746,3.96 -11.346,6.413c-1.04,-0.2 -3.12,-0.613 -4.147,-0.813c1.027,-8.96 1.133,-18.254 -1.507,-26.96c-1.24,-4.387 -5.08,-7.174 -8.386,-9.974c-0.174,1.16 -0.534,3.467 -0.707,4.627c-0.96,0.107 -2.893,0.32 -3.853,0.44c-3.147,-8.16 -12.374,-10.2 -17.347,-16.707c-2.773,-3.333 -5.96,-6.28 -9.507,-8.773l-1.12,-0.84Z" style="fill:#3c2f1e;fill-opacity:0.42;fill-rule:nonzero;"/><path id="_.23.060503a1" d="M231.494,13.413c-0.307,-2.506 -0.614,-6.013 2.36,-7.053c1.773,2.453 -1.054,5.08 -2.36,7.053Z" style="fill:#060503;fill-opacity:0.63;fill-rule:nonzero;"/><path id="_.23.0a0705b2" d="M180.2,14.44c5.147,-3.053 10.694,-5.413 16.534,-6.813c-0.507,2.04 -1.027,4.093 -1.534,6.133l-0.6,-0.773c-0.48,-0.614 -1.453,-1.84 -1.933,-2.454c-4.107,1.494 -8.293,2.694 -12.467,3.907Z" style="fill:#0a0705;fill-opacity:0.7;fill-rule:nonzero;"/><path d="M222.4,26.493c10.934,0.374 17.894,-9.133 26.174,-14.666c-0.867,4.933 -1.654,9.893 -2.027,14.893c-6.227,2.653 -11.893,6.573 -18.453,8.427c-5.334,-4.227 -12.24,-0.787 -18.254,-0.587c3.307,-5.347 7.547,-10 11.44,-14.907c0.374,2.28 0.747,4.56 1.12,6.84Z" style="fill:#32180c;fill-rule:nonzero;"/><path d="M265.934,26.267c0.906,4.2 2.12,8.333 3.586,12.373c1.32,-0.88 2.654,-1.76 3.987,-2.653c4.36,8.973 9.32,17.866 10.373,27.973c3.907,-6.88 9.707,-14.387 7.6,-22.76c2.094,-0.347 4.187,-0.667 6.307,-1c1.28,6.133 0.933,12.387 0.747,18.6c-0.334,2.2 1.946,3.267 3.133,4.733c-9.2,9.654 -21.613,14.974 -32.213,22.76c8.973,0.987 18.466,0.254 26.453,-4.333c6.307,-3.627 11.72,-9.187 14.52,-15.96c2.027,-4.653 0.667,-9.733 0.187,-14.547c0.08,-0.666 0.213,-1.973 0.293,-2.64c3.947,11.694 0.147,23.8 -4.107,34.8c6.067,-1.186 11.92,-3.133 17.72,-5.213c-1.866,4.987 -5.773,8.587 -9.306,12.387c1.96,4.773 5.893,8.6 7.186,13.68c0.947,5.56 -0.186,11.186 -0.653,16.733c-3.12,25.84 1.493,52.253 -4.667,77.8c-0.986,-7.2 -1.293,-14.493 -2.573,-21.653c-1.227,-7.08 -6.627,-12.747 -7.08,-20.04c-1,-12.774 -4.267,-25.534 -10.893,-36.6c0.746,-6.614 -4.427,-12.08 -9.774,-15.094c-7.386,-3.693 -15.72,-0.946 -23.013,1.534c-6.587,2.413 -13.667,2.493 -20.573,2c0.773,-2.48 1.546,-4.974 2.293,-7.467c-4.067,0.147 -7.747,1.907 -11,4.213c-9.933,6.72 -22.147,9.76 -34.08,9.014c-11.867,-0.694 -22.96,-5.68 -34.8,-6.654c-10.32,-0.906 -21.24,-1.013 -30.827,3.44c-4.346,1.894 -7.84,5.187 -11.266,8.374c0.2,0.693 0.586,2.093 0.786,2.786c-9.04,11.52 -11.666,26.747 -11.533,41.054c0.173,8.613 -3.56,16.68 -3.84,25.253c-0.907,12.213 1.44,24.6 -1.213,36.68c0.386,-9.2 -2.134,-18.093 -3.587,-27.08c-2.053,-14.613 -3.627,-29.293 -4.173,-44.04c-0.534,-12.667 -4.24,-24.907 -5.214,-37.507c-0.573,-6.066 2.867,-11.4 4.747,-16.933c5.787,1.693 12.24,2.4 17.52,-1.147c-5.227,-2.813 -11,-4.213 -16.68,-5.746c2.88,0.08 5.747,-0.08 8.627,-0.214c-2.627,-5.106 -5.747,-10.213 -6.067,-16.12c4.027,8.374 13.267,13.374 22.373,13.054c2.8,-2.174 4.627,-5.28 6.694,-8.107c5.186,-7.693 12.373,-14.213 20.96,-17.88c2.053,-1 4.386,-1.12 6.613,-0.707c-4.08,6.054 -9.547,11.147 -12.68,17.84c7.973,-2.68 14.987,-7.826 23.387,-9.28c-7.747,10.187 -20.547,15.84 -25.894,27.974c8.734,0.066 17.08,-2.627 25.254,-5.4c-1.654,2.306 -3.294,4.64 -4.894,6.986c14.814,-3.973 24.387,-16.76 36.907,-24.666c-2.24,5.746 -5.213,11.16 -7.92,16.693c13.2,-2.533 24.36,-10.32 35.36,-17.573c-1.347,5.853 -4.467,11 -7.347,16.186c13.214,-3.093 20.227,-15.746 28.8,-25.013c-0.253,3.587 -0.626,7.147 -1.093,10.707c7.413,-6.747 11.373,-16.307 13.76,-25.84c1.907,-8.44 3.187,-17.094 2.787,-25.76Z" style="fill:#32180c;fill-rule:nonzero;"/><path d="M194.6,12.987l0.6,0.773c0.48,0.653 1.454,1.947 1.934,2.587c-2.454,0.586 -4.867,1.28 -7.294,1.973c1.587,-1.773 3.174,-3.547 4.76,-5.333Z" style="fill:#f0bf7c;fill-rule:nonzero;"/><path d="M255.134,13.4c0.706,0.133 2.12,0.387 2.826,0.507c-1.306,1.493 -2.6,3.013 -3.88,4.52c0.347,-1.667 0.707,-3.347 1.054,-5.027Z" style="fill:#f0bf7c;fill-rule:nonzero;"/><path d="M139.227,37.973c0.813,-1.493 1.613,-3.013 2.4,-4.533c0.68,0.4 2.04,1.187 2.72,1.587c-1.733,0.92 -3.44,1.92 -5.12,2.946Z" style="fill:#f0bf7c;fill-rule:nonzero;"/><path d="M301.694,40.64c0.96,-0.12 2.893,-0.333 3.853,-0.44c-0.4,3.12 -0.613,6.253 -0.92,9.387c-0.947,-2.987 -1.773,-6.027 -2.933,-8.947Z" style="fill:#f0bf7c;fill-rule:nonzero;"/><path d="M110.8,47.267c1.72,0.08 3.44,0.2 5.174,0.373c-1.347,1.56 -2.614,3.187 -3.88,4.813c-0.44,-1.733 -0.867,-3.466 -1.294,-5.186Z" style="fill:#f0bf7c;fill-rule:nonzero;"/><path d="M315.72,75.293c0.107,-0.706 0.32,-2.093 0.427,-2.786c1.027,0.2 3.107,0.613 4.147,0.813c-1.12,1.12 -2.894,3.387 -4.574,1.973Z" style="fill:#f0bf7c;fill-rule:nonzero;"/><path d="M93.24,83.96c1.52,-0.613 3.054,-1.213 4.587,-1.813c0.187,1.933 0.453,3.866 0.693,5.8c-1.746,-1.347 -3.48,-2.707 -5.28,-3.987Z" style="fill:#f0bf7c;fill-rule:nonzero;"/><path d="M323.52,91.933c0.494,-1.573 1.28,-3.04 2.014,-4.52c0.546,0.214 1.653,0.64 2.2,0.854c14.666,8.36 27.653,19.48 39.653,31.333c14.147,14.427 26.587,30.68 36.08,48.56c-4.48,0.573 -9.08,0.493 -13.36,-1.027c-9.373,-3.173 -18.84,-6.16 -27.853,-10.266c-8.654,-3.88 -18.227,-5.227 -26.774,-9.374c-7.466,-3.386 -6.92,-13.053 -8.72,-19.84c0.774,-7.906 1.547,-15.88 0.8,-23.813c-0.493,-4.24 -2.92,-7.867 -4.04,-11.907Z" style="fill:#f0bf7c;fill-rule:nonzero;"/><path d="M188.254,26.64c11.653,-5.52 24.146,-9.067 36.333,-13.187c-1.053,2.094 -2.107,4.187 -3.307,6.2c-3.893,4.907 -8.133,9.56 -11.44,14.907c6.014,-0.2 12.92,-3.64 18.254,0.587c6.56,-1.854 12.226,-5.774 18.453,-8.427c2.853,-0.027 5.72,0.107 8.587,0.2c-5.84,7.16 -14.214,11.4 -21.267,17.173c7.013,-1.533 13.213,-5.2 19.56,-8.4c-0.2,2.534 -0.413,5.08 -0.627,7.627c1.76,-0.173 3.52,-0.36 5.294,-0.52c-0.214,4.08 -0.494,8.147 -0.667,12.24c2.68,-5.333 3.933,-11.213 4.36,-17.133c-0.96,-0.267 -2.867,-0.8 -3.827,-1.08c0.347,-4.267 4.054,-10.067 0.214,-13.427c1.693,-1.987 3.44,-3.933 5.213,-5.867c0.973,2.88 1.907,5.76 2.547,8.734c0.4,8.666 -0.88,17.32 -2.787,25.76c-2.387,9.533 -6.347,19.093 -13.76,25.84c0.467,-3.56 0.84,-7.12 1.093,-10.707c-8.573,9.267 -15.586,21.92 -28.8,25.013c2.88,-5.186 6,-10.333 7.347,-16.186c-11,7.253 -22.16,15.04 -35.36,17.573c2.707,-5.533 5.68,-10.947 7.92,-16.693c-12.52,7.906 -22.093,20.693 -36.907,24.666c1.6,-2.346 3.24,-4.68 4.894,-6.986c-8.174,2.773 -16.52,5.466 -25.254,5.4c5.347,-12.134 18.147,-17.787 25.894,-27.974c-8.4,1.454 -15.414,6.6 -23.387,9.28c3.133,-6.693 8.6,-11.786 12.68,-17.84c-2.227,-0.413 -4.56,-0.293 -6.613,0.707c-8.587,3.667 -15.774,10.187 -20.96,17.88c-2.067,2.827 -3.894,5.933 -6.694,8.107c-9.106,0.32 -18.346,-4.68 -22.373,-13.054c-0.413,-5.48 1.227,-10.8 2.707,-16c1.84,1.934 3.626,3.96 5.72,5.654c3.173,-0.174 3.053,-4.254 4.2,-6.454c2.133,-8.053 7.946,-14.426 14.413,-19.373c-2.213,5.547 -5.413,10.72 -6.907,16.533c-0.8,2.974 0.88,5.814 1.68,8.6c5.96,-4.266 8.334,-11.493 12.867,-17c7.64,-9.946 18.547,-16.52 29.013,-23.066c3.027,-1.907 6.347,-3.24 9.72,-4.374c-1,1.36 -1.986,2.707 -2.96,4.08c-2.466,3.494 -3.826,7.587 -4.853,11.694c3.6,-1.627 7.16,-3.4 10.547,-5.467c-3.387,3.667 -6.387,7.667 -9.467,11.6c4.347,-3.067 8.747,-6.08 13.227,-8.96c-0.214,1.747 -0.427,3.493 -0.64,5.24c8.826,-5.667 18.186,-10.56 26.333,-17.213c-6.68,1.666 -13.08,5.773 -20.213,4.093m-54.534,34.48c-3.853,5.04 -5.08,11.44 -6.24,17.533c3.094,-3.626 5.454,-7.786 7.694,-11.973c3.026,-5.68 7.333,-10.547 10.52,-16.133c-4.8,2.48 -8.68,6.36 -11.974,10.573m24.96,7.56c12.774,-5.333 25.787,-10.08 39.134,-13.787c-13.947,-0.52 -30.12,2.014 -39.134,13.787m82.56,0.093c-3.266,5.134 -7.48,9.627 -10.32,15.04c8.827,-3.386 14.774,-12.293 15.88,-21.506c-2.133,1.893 -4.026,4.053 -5.56,6.466Z" style="fill:#58351b;fill-rule:nonzero;"/><path d="M273.507,35.987c1.533,-4.36 3.28,-8.654 5.293,-12.827c4.987,5.44 9.107,11.6 12.68,18.04c2.107,8.373 -3.693,15.88 -7.6,22.76c-1.053,-10.107 -6.013,-19 -10.373,-27.973Z" style="fill:#58351b;fill-rule:nonzero;"/><path id="_.23.54402ae8" d="M231,14.16c0.76,0.56 2.307,1.68 3.067,2.253c-0.867,0.96 -1.907,1.587 -3.107,1.867c-1.96,-0.56 -0.893,-3.093 0.04,-4.12Z" style="fill:#54402a;fill-opacity:0.91;fill-rule:nonzero;"/><path id="_.23.5f4930ec" d="M270.76,18.987c3.614,0.706 3.68,3.653 2.76,6.626c-2.893,-0.946 -2.813,-4.146 -2.76,-6.626Z" style="fill:#5f4930;fill-opacity:0.93;fill-rule:nonzero;"/><path id="_.23.866c5aff" d="M188.254,26.64c7.133,1.68 13.533,-2.427 20.213,-4.093c-8.147,6.653 -17.507,11.546 -26.333,17.213c0.213,-1.747 0.426,-3.493 0.64,-5.24c-4.48,2.88 -8.88,5.893 -13.227,8.96c3.08,-3.933 6.08,-7.933 9.467,-11.6c0.386,-0.24 1.16,-0.733 1.546,-0.973c2.534,-1.48 5.067,-2.947 7.694,-4.267Z" style="fill:#866c5a;fill-rule:nonzero;"/><path id="_.23.886f5cff" d="M258.174,23.4c3.84,3.36 0.133,9.16 -0.214,13.427c0.96,0.28 2.867,0.813 3.827,1.08c-0.427,5.92 -1.68,11.8 -4.36,17.133c0.173,-4.093 0.453,-8.16 0.667,-12.24c-1.774,0.16 -3.534,0.347 -5.294,0.52c0.214,-2.547 0.427,-5.093 0.627,-7.627c-6.347,3.2 -12.547,6.867 -19.56,8.4c7.053,-5.773 15.427,-10.013 21.267,-17.173c1,-1.173 2.013,-2.347 3.04,-3.52Z" style="fill:#886f5c;fill-rule:nonzero;"/><path id="_.23.361b0dff" d="M168.467,37.347c1.027,-4.107 2.387,-8.2 4.853,-11.694c0.734,1.547 1.44,3.12 2.36,4.587c1.6,0.347 3.227,0.56 4.88,0.667c-0.386,0.24 -1.16,0.733 -1.546,0.973c-3.387,2.067 -6.947,3.84 -10.547,5.467Z" style="fill:#361b0d;fill-rule:nonzero;"/><path id="_.23.6a523496" d="M146.454,26.173c0.733,2.08 1.453,4.16 2.146,6.254c-1.586,-0.987 -3.173,-1.974 -4.746,-2.96c0.653,-0.827 1.96,-2.467 2.6,-3.294Z" style="fill:#6a5234;fill-opacity:0.59;fill-rule:nonzero;"/><path id="_.23.89705dff" d="M133.72,61.12c3.294,-4.213 7.174,-8.093 11.974,-10.573c-3.187,5.586 -7.494,10.453 -10.52,16.133c-2.24,4.187 -4.6,8.347 -7.694,11.973c1.16,-6.093 2.387,-12.493 6.24,-17.533Z" style="fill:#89705d;fill-rule:nonzero;"/><path id="_.23.57341bff" d="M310.614,51.453c0.48,4.814 1.84,9.894 -0.187,14.547c-2.8,6.773 -8.213,12.333 -14.52,15.96c-7.987,4.587 -17.48,5.32 -26.453,4.333c10.6,-7.786 23.013,-13.106 32.213,-22.76c3.6,-3.52 6.653,-7.586 8.947,-12.08m-16.147,23.787c-2.453,1.52 -4.64,3.427 -6.373,5.733c8.746,-1.613 17.253,-7.306 20.16,-16.013c-4.974,2.92 -8.934,7.213 -13.787,10.28Z" style="fill:#57341b;fill-rule:nonzero;"/><path id="_.23.876d5aff" d="M158.68,68.68c9.014,-11.773 25.187,-14.307 39.134,-13.787c-13.347,3.707 -26.36,8.454 -39.134,13.787Z" style="fill:#876d5a;fill-rule:nonzero;"/><path id="_.23.7a5e49ff" d="M241.24,68.773c1.534,-2.413 3.427,-4.573 5.56,-6.466c-1.106,9.213 -7.053,18.12 -15.88,21.506c2.84,-5.413 7.054,-9.906 10.32,-15.04Z" style="fill:#7a5e49;fill-rule:nonzero;"/><path id="_.23.745641ff" d="M294.467,75.24c4.853,-3.067 8.813,-7.36 13.787,-10.28c-2.907,8.707 -11.414,14.4 -20.16,16.013c1.733,-2.306 3.92,-4.213 6.373,-5.733Z" style="fill:#745641;fill-rule:nonzero;"/><path id="_.23.56341aff" d="M91.054,89.253c3.04,1.467 6.013,3.134 9.253,4.134c5.68,1.533 11.453,2.933 16.68,5.746c-5.28,3.547 -11.733,2.84 -17.52,1.147c-3.627,-2.973 -6.187,-6.947 -8.413,-11.027Z" style="fill:#56341a;fill-rule:nonzero;"/><path id="_.23.f9c688ff" d="M1.374,247.773c6.04,-59.933 38.96,-116.8 88.253,-151.52c0.693,1.747 1.533,3.44 2.12,5.24c-0.707,3.96 -3.32,7.48 -3.053,11.64c-0.48,11.4 2.813,22.4 4.266,33.587c0.72,18.347 1.347,36.827 5.08,54.867c-4.92,0.306 -9.88,-1.534 -14.733,-0.467c-6.107,2.173 -8.613,8.92 -9.693,14.76c-1.52,9.787 0.213,19.8 3.066,29.187c-13.986,2.986 -28.333,3.64 -42.573,4.213c-9.067,0.973 -18.387,-0.76 -27.267,1.76c-2.373,0.507 -3.586,2.773 -5.04,4.467c-0.133,-2.587 -0.306,-5.16 -0.426,-7.734Z" style="fill:#f9c688;fill-rule:nonzero;"/><path id="_.23.070302ff" d="M234.467,105.893c3.253,-2.306 6.933,-4.066 11,-4.213c-0.747,2.493 -1.52,4.987 -2.293,7.467c6.906,0.493 13.986,0.413 20.573,-2c7.293,-2.48 15.627,-5.227 23.013,-1.534c5.347,3.014 10.52,8.48 9.774,15.094c-4.334,-5.027 -8.934,-11.294 -16.094,-11.947c-6.56,-0.12 -12.666,2.68 -18.933,4.187c-8.427,2.093 -17.267,1.373 -25.693,-0.28c-2.654,-0.64 -5.08,0.866 -7.427,1.84c-10.507,5.08 -22.587,7.266 -34.147,5.2c-14.413,-2.414 -28.386,-8.08 -43.213,-7.467c-9.867,-0.16 -19.867,3.427 -26.747,10.613c-0.2,-0.693 -0.586,-2.093 -0.786,-2.786c3.426,-3.187 6.92,-6.48 11.266,-8.374c9.587,-4.453 20.507,-4.346 30.827,-3.44c11.84,0.974 22.933,5.96 34.8,6.654c11.933,0.746 24.147,-2.294 34.08,-9.014Z" style="fill:#070302;fill-rule:nonzero;"/><path d="M261.507,112.947c6.267,-1.507 12.373,-4.307 18.933,-4.187c7.16,0.653 11.76,6.92 16.094,11.947c6.626,11.066 9.893,23.826 10.893,36.6c0.453,7.293 5.853,12.96 7.08,20.04c1.28,7.16 1.587,14.453 2.573,21.653c-0.04,6.12 -0.013,12.267 0.787,18.36c1.4,10.747 -0.867,21.6 -4.2,31.787c-2.52,7.493 -3.053,15.6 -6.547,22.76c-2.733,5.8 -8.053,9.8 -11.053,15.413c-4.013,7.64 -9.64,14.453 -16.507,19.68c-4.786,-6.813 -3.573,-15.16 -3.453,-22.96c0.32,-1.973 -1.893,-2.613 -3.253,-3.24c-6.107,-2.227 -12.427,-3.84 -18.8,-4.987c-5.2,-0.853 -10.44,-1.36 -15.68,-1.853c-1.054,-2.333 -2.12,-4.667 -3.187,-6.973c-0.933,2.44 -1.853,4.88 -2.787,7.333c-4.813,2.627 -8.933,6.293 -13.52,9.24c-2.28,1.627 -5.306,1.427 -7.666,0.133c-5.04,-2.573 -9.707,-5.826 -14.947,-7.986c-0.613,-2.2 -1.227,-4.4 -1.813,-6.6c-1.88,2.693 -3.747,5.413 -5.974,7.84c-11.133,1.52 -22.186,4.466 -32.173,9.693c-1.84,0.76 -0.813,3.293 -0.987,4.827c0.88,7.026 1.987,14.533 -1.8,20.973c-6.8,-4.787 -13.093,-10.533 -17.506,-17.653c-4.027,-6.454 -11,-10.547 -14.374,-17.494c-4.973,-9.666 -7.293,-20.413 -10.533,-30.733c-1.787,-6.32 -3.773,-12.747 -3.467,-19.4l0.054,-1.32c2.653,-12.08 0.306,-24.467 1.213,-36.68c0.28,-8.573 4.013,-16.64 3.84,-25.253c-0.133,-14.307 2.493,-29.534 11.533,-41.054c6.88,-7.186 16.88,-10.773 26.747,-10.613c14.827,-0.613 28.8,5.053 43.213,7.467c11.56,2.066 23.64,-0.12 34.147,-5.2c2.347,-0.974 4.773,-2.48 7.427,-1.84c8.426,1.653 17.266,2.373 25.693,0.28m-31.227,71.506c-0.12,3 -0.093,6.014 0.2,9.014c9.6,-3.827 19.254,-7.734 29.44,-9.68c12.827,-2.454 26.28,-4.214 39.04,-0.44c-3.466,-6.174 -8.333,-11.747 -14.4,-15.44c-4.586,-1.747 -9.706,-0.974 -14.466,-0.507c-14.147,3.227 -28.16,8.173 -39.814,17.053m-90.68,-11.8c-7.533,2.494 -11.613,10 -15.08,16.587c9.134,-2.187 18.52,-2.853 27.894,-2.267c14.106,-0.146 27.68,4 41.133,7.654c-0.413,-3.147 0.12,-6.987 -2.56,-9.294c-5,-4.266 -11.587,-5.893 -17.627,-8.093c-10.746,-3.853 -22.36,-6.12 -33.76,-4.587m111.294,30.014c1.466,0.893 2.96,1.8 4.44,2.706c-9.68,4.014 -16.72,12.894 -20.08,22.654c0.426,-0.134 1.293,-0.4 1.733,-0.534c5.04,2.227 10.733,1.374 16,0.48l0.88,0.52c7.56,0.28 14.973,-1.706 22.507,-1.973c3.253,-0.533 7.253,0.453 9.76,-2.227c0.306,-0.413 0.933,-1.213 1.24,-1.613c-0.054,0.573 -0.187,1.707 -0.24,2.28c3.373,-0.173 7.666,1.387 10.24,-1.573c2.933,-2.627 2.693,-6.84 3.28,-10.4c0.506,1.653 1,3.32 1.466,5c2.2,-2.52 3.294,-7.054 0.094,-9.28c-5.36,-4.187 -12.147,-6.2 -18.8,-7.094c-3.374,-1.973 -7.36,-1.92 -11.12,-2.24c4.133,-0.88 8.266,-1.693 12.386,-2.613c-2.466,-1.52 -5.253,-2.6 -8.2,-2.147c-8.933,0.814 -18.426,2.16 -25.586,8.054m-108.294,-0.64c3.174,0.733 6.374,1.333 9.574,1.866c-0.8,0.8 -1.6,1.614 -2.4,2.427c-7.774,1.387 -15.934,3.533 -21.96,8.92c-3.04,2.467 -2.08,7.2 0.746,9.427c0.227,-1.827 0.427,-3.654 0.614,-5.494c0.386,-0.16 1.173,-0.506 1.56,-0.666c-0.054,3.493 -1.107,7.826 2.08,10.346c2.84,3.707 7.866,1.894 11.786,1.854l-0.346,-1.094c0.56,0.334 1.68,1 2.24,1.32l-0.974,0.214c10.56,1.026 21.187,-0.387 31.747,0.68l-0.333,-0.774c0.626,-0.4 1.88,-1.213 2.506,-1.626c-0.133,0.466 -0.386,1.386 -0.52,1.84c4.36,-0.04 8.734,-0.12 13.094,-0.054c0.253,-0.92 0.773,-2.773 1.026,-3.693c0.507,0.453 1.507,1.36 2.014,1.813c-2.374,-10.533 -12.374,-17.44 -21.774,-21.44c2.04,-0.493 4.014,-1.226 6,-1.906c-6.253,-5.48 -14.88,-6.347 -22.84,-6.52c-4.706,0.013 -9.92,-0.574 -13.84,2.56m59.92,12.973c-0.64,6.507 -0.226,13.067 -0.32,19.6c0.147,4.667 -0.346,9.867 2.854,13.72c0.413,-12.72 0.466,-25.48 -0.027,-38.187c-1.053,1.494 -2.493,2.907 -2.507,4.867m3.467,52.467c-0.12,1.88 -0.227,3.76 -0.32,5.653c1.16,0.027 3.493,0.107 4.667,0.133c-0.867,-2.346 -2.027,-4.613 -4.347,-5.786Z" style="fill:#d38d5f;fill-rule:nonzero;"/><path d="M324.12,200.84c4.08,-3.28 9.24,-6.64 14.72,-5.2c4.8,2.667 6.4,8.493 7.147,13.56c2.747,22.453 -7.4,47.307 -27.347,58.907c0.067,-4.467 0.547,-8.894 1.04,-13.32c9.747,-1.214 14.707,-10.92 18.04,-19.04c3.08,-9.414 5.227,-20.894 -0.6,-29.694c-4.453,0.4 -8.586,2.12 -12.386,4.387c-0.147,-2.787 -0.467,-5.547 -0.654,-8.32l0.04,-1.28Z" style="fill:#d38d5f;fill-rule:nonzero;"/><path d="M85.2,206c4.88,-0.827 9.547,1.56 14.12,2.933c0.414,3.08 0.8,6.174 1.254,9.254c0.093,0.613 0.253,1.84 0.333,2.453c-4.52,-2.28 -9.387,-3.893 -14.493,-3.947c-3.507,9.307 -1.654,19.574 1.946,28.547c3.854,8.92 10.494,17.773 20.56,19.84l1.12,0.4c0.32,2.493 0.747,4.96 1.08,7.453c0.067,1.08 0.187,3.227 0.254,4.294c-5.067,-2.267 -10,-5.054 -13.894,-9.054c-13.093,-13.253 -20.96,-32.24 -18.733,-50.973c0.64,-4.28 2.28,-9.16 6.453,-11.2Z" style="fill:#d38d5f;fill-rule:nonzero;"/><path d="M239.48,287.76c8.28,-0.547 16.587,-2.613 24.894,-1.467c4.52,0.507 5.693,5.72 5.666,9.494c-0.413,13.706 -2.573,28.48 -11.746,39.293c-5.6,7.147 -15.027,8.76 -23.094,11.68c-1.626,-4.44 -2,-9.227 -0.213,-13.693c1.213,-3.147 2.48,-6.267 3.933,-9.32c5.294,-4.574 9.774,-9.987 13.427,-15.947c3.227,-5.48 9.333,-8.733 11.573,-14.867c-7.773,2.147 -15.106,5.747 -23.08,7.174c-11.093,2.386 -22.493,1.546 -33.746,1.68c-6.667,0.013 -13.374,0.146 -19.974,-0.854c-6.533,-0.96 -12.653,-3.6 -19.093,-4.986c3.76,5.986 9.56,10.28 13.587,16.066c3.133,4.387 6.866,8.294 10.92,11.827c2.546,3.307 4.84,6.8 7.2,10.253c1.853,3.974 4.48,10.334 0.306,13.44c-6.56,-0.68 -13.2,-2.453 -19,-5.613c-12.84,-9.28 -17.146,-25.707 -18.586,-40.693c-0.387,-4.027 -0.387,-9.707 4.48,-10.947c9.826,-0.293 19.653,-0.067 29.48,-0.2c7.653,-0.213 15.293,2.307 22.92,0.773c6.666,-1.306 13.4,-2.266 20.146,-3.093Z" style="fill:#d38d5f;fill-rule:nonzero;"/><path d="M188.254,384.2c1.44,-1.36 2.8,-2.773 4.186,-4.187c5.28,0.827 10.627,0.68 15.934,1.24c7.306,4.067 15.32,0.734 22.586,-1.546c0.934,-0.12 2.8,-0.347 3.747,-0.467c1.72,2.787 3.533,5.52 5.4,8.227c-7.173,6.373 -14.84,14.013 -25.28,13.373c-2.96,0 -5.907,0.027 -8.853,0.053c-9.867,-0.56 -15.894,-9.173 -22.667,-15.186c1.653,-0.494 3.307,-0.96 4.947,-1.507Z" style="fill:#d38d5f;fill-rule:nonzero;"/><path id="_.23.f9c686ff" d="M326.107,186.213c1.467,-19.506 -0.733,-39.066 0.653,-58.56c1.8,6.787 1.254,16.454 8.72,19.84c8.547,4.147 18.12,5.494 26.774,9.374c9.013,4.106 18.48,7.093 27.853,10.266c4.28,1.52 8.88,1.6 13.36,1.027c12.72,23.467 21.093,49.333 24.48,75.813c2.467,16.707 1.267,33.654 0.613,50.454c-4.133,39.84 -19.84,78.653 -45.413,109.586c-4.64,-2.853 -9.36,-5.72 -13.053,-9.786c-5.8,-6.307 -10.04,-13.854 -15.987,-20.027c-5.347,-5.533 -10.627,-11.373 -13.56,-18.587c-2.92,-6.226 -2.907,-13.186 -4.053,-19.826c-0.68,-4.454 -4.64,-7.6 -5.427,-11.96c0.213,-5.534 1.733,-10.894 2.453,-16.374c-6.066,-1.173 -12.026,-3.013 -17.44,-6.053c1.68,-8.84 0.707,-17.907 1.814,-26.8c25.106,-12.453 38.293,-43.427 32.56,-70.4c-1.574,-5.92 -5.027,-12.44 -11.44,-14.067c-4.44,-0.6 -8.667,1.374 -12.8,2.68c-0.054,-2.213 -0.107,-4.413 -0.107,-6.6Z" style="fill:#f9c686;fill-rule:nonzero;"/><path d="M230.28,184.453c11.654,-8.88 25.667,-13.826 39.814,-17.053c4.76,-0.467 9.88,-1.24 14.466,0.507c6.067,3.693 10.934,9.266 14.4,15.44c-12.76,-3.774 -26.213,-2.014 -39.04,0.44c-10.186,1.946 -19.84,5.853 -29.44,9.68c-0.293,-3 -0.32,-6.014 -0.2,-9.014Z" style="fill:#1b0d06;fill-rule:nonzero;"/><path d="M139.6,172.653c11.4,-1.533 23.014,0.734 33.76,4.587c6.04,2.2 12.627,3.827 17.627,8.093c2.68,2.307 2.147,6.147 2.56,9.294c-13.453,-3.654 -27.027,-7.8 -41.133,-7.654c-9.374,-0.586 -18.76,0.08 -27.894,2.267c3.467,-6.587 7.547,-14.093 15.08,-16.587Z" style="fill:#1b0d06;fill-rule:nonzero;"/><path d="M324.12,200.84c0.134,-4.933 0.92,-9.827 1.987,-14.627c0,2.187 0.053,4.387 0.107,6.6c4.133,-1.306 8.36,-3.28 12.8,-2.68c6.413,1.627 9.866,8.147 11.44,14.067c5.733,26.973 -7.454,57.947 -32.56,70.4c0.466,-8.787 0.053,-17.587 0.96,-26.347c-1.734,0.294 -3.467,0.587 -5.187,0.894c3.333,-10.187 5.6,-21.04 4.2,-31.787c1.653,0.453 3.32,0.907 4.987,1.36c0.36,-5.533 0.88,-11.067 1.226,-16.6c0.187,2.773 0.507,5.533 0.654,8.32c0.12,3.16 -0.08,6.32 -0.387,9.467c-0.173,1.413 -0.32,2.84 -0.453,4.28c-0.48,5.613 -1.56,11.146 -2.534,16.693c-0.853,4.6 -1.306,9.24 -1.68,13.907c-0.493,4.426 -0.973,8.853 -1.04,13.32c19.947,-11.6 30.094,-36.454 27.347,-58.907c-0.747,-5.067 -2.347,-10.893 -7.147,-13.56c-5.48,-1.44 -10.64,1.92 -14.72,5.2Z" style="fill:#472719;fill-rule:nonzero;"/><path d="M186.64,376.04c6.667,3.827 14.56,3.187 21.734,5.213c-5.307,-0.56 -10.654,-0.413 -15.934,-1.24c-1.386,1.414 -2.746,2.827 -4.186,4.187c-2.374,-0.173 -4.787,-0.24 -7.094,-0.827c-0.64,-1.306 -1.106,-2.666 -1.586,-4.026c2.36,-1.08 4.733,-2.16 7.066,-3.307Z" style="fill:#472719;fill-rule:nonzero;"/><path d="M250.894,202.667c7.16,-5.894 16.653,-7.24 25.586,-8.054c2.947,-0.453 5.734,0.627 8.2,2.147c-4.12,0.92 -8.253,1.733 -12.386,2.613c3.76,0.32 7.746,0.267 11.12,2.24c-9.48,-0.573 -19.294,-0.226 -28.08,3.76c-1.48,-0.906 -2.974,-1.813 -4.44,-2.706Z" style="fill:#c47b53;fill-rule:nonzero;"/><path d="M192.534,323.84c13.946,8.64 32.506,8.773 46.386,-0.093c-1.453,3.053 -2.72,6.173 -3.933,9.32c0.16,-0.574 0.467,-1.707 0.627,-2.28c-5.734,2.6 -11.427,6.04 -17.92,6.106c-6.64,0.454 -12.694,-2.613 -18.76,-4.786c0.2,0.493 0.6,1.48 0.8,1.986c-2.36,-3.453 -4.654,-6.946 -7.2,-10.253Z" style="fill:#c47b53;fill-rule:nonzero;"/><path id="_.23.c77d54ff" d="M142.6,202.027c3.92,-3.134 9.134,-2.547 13.84,-2.56c7.96,0.173 16.587,1.04 22.84,6.52c-1.986,0.68 -3.96,1.413 -6,1.906c-7.693,-1.693 -15.64,-2.64 -23.506,-1.573c0.8,-0.813 1.6,-1.627 2.4,-2.427c-3.2,-0.533 -6.4,-1.133 -9.574,-1.866Z" style="fill:#c77d54;fill-rule:nonzero;"/><path id="_.23.452618ff" d="M73.614,215.88c1.08,-5.84 3.586,-12.587 9.693,-14.76c4.853,-1.067 9.813,0.773 14.733,0.467c0.48,2.44 0.907,4.88 1.28,7.346c-4.573,-1.373 -9.24,-3.76 -14.12,-2.933c-4.173,2.04 -5.813,6.92 -6.453,11.2c-2.227,18.733 5.64,37.72 18.733,50.973c3.894,4 8.827,6.787 13.894,9.054c-0.067,-1.067 -0.187,-3.214 -0.254,-4.294c0.507,3.32 0.92,6.654 1.374,9.987c-17.814,-4.987 -29.294,-21.467 -35.814,-37.853c-2.853,-9.387 -4.586,-19.4 -3.066,-29.187Z" style="fill:#452618;fill-rule:nonzero;"/><path d="M255.334,205.373c8.786,-3.986 18.6,-4.333 28.08,-3.76c6.653,0.894 13.44,2.907 18.8,7.094c3.2,2.226 2.106,6.76 -0.094,9.28c-0.466,-1.68 -0.96,-3.347 -1.466,-5c-4.094,-2.44 -8.72,-3.707 -13.294,-4.854c0.294,4.84 0.707,9.72 0.014,14.547c-0.307,0.4 -0.934,1.2 -1.24,1.613c-1.627,0.28 -3.254,0.547 -4.88,0.827c-0.48,-4.24 -1.6,-8.373 -3.574,-12.147c-1.08,4.374 -1.12,11.187 -6.906,11.934c-4.747,1.36 -8.454,-2.24 -11.627,-5.147c0.907,-1.187 1.84,-2.373 2.747,-3.573c1.506,-2.014 2.906,-4.094 4.173,-6.267c-1.973,0.053 -3.947,-0.027 -5.88,0.347c-1.16,1.533 -2.027,3.266 -2.867,4.986c-1.426,4.134 -1.053,8.52 -0.28,12.734c-0.786,0.133 -2.373,0.386 -3.173,0.506l-0.88,-0.52c-2.827,-3.946 -3.907,-8.72 -4.28,-13.48c-4.28,4 -7.733,8.747 -11.72,13c-0.44,0.134 -1.307,0.4 -1.733,0.534c3.36,-9.76 10.4,-18.64 20.08,-22.654Z" style="fill:#010101;fill-rule:nonzero;"/><path d="M127.814,215.24c6.026,-5.387 14.186,-7.533 21.96,-8.92c7.866,-1.067 15.813,-0.12 23.506,1.573c9.4,4 19.4,10.907 21.774,21.44c-0.507,-0.453 -1.507,-1.36 -2.014,-1.813c-3.573,-3.507 -7.186,-7.027 -11.453,-9.72c-0.36,3.933 -0.853,7.88 -2.147,11.627c-0.626,0.413 -1.88,1.226 -2.506,1.626c-1.76,-3.84 -2.227,-8.106 -3.334,-12.146c-0.68,0.04 -2.053,0.12 -2.746,0.16c-1,4.013 -2.28,8.88 -6.92,9.986c-5.814,2.494 -11.04,-3.333 -10.654,-8.96c2.494,-2.066 4.707,-4.44 6.427,-7.186c-3.96,-0.867 -8.76,0.373 -8.4,5.253c-0.667,3.947 -0.933,7.96 -1.08,11.96c-1.253,0.28 -2.493,0.547 -3.733,0.813c-0.56,-0.32 -1.68,-0.986 -2.24,-1.32c-2.094,-5.106 -1.88,-10.653 -1.694,-16.053c-3.946,1.627 -7.906,3.227 -11.826,4.947c-0.387,0.16 -1.174,0.506 -1.56,0.666c-0.187,1.84 -0.387,3.667 -0.614,5.494c-2.826,-2.227 -3.786,-6.96 -0.746,-9.427Z" style="fill:#010101;fill-rule:nonzero;"/><path id="_.23.7f4b33ff" d="M324.734,210.44c3.8,-2.267 7.933,-3.987 12.386,-4.387c-4.08,4.787 -9.346,8.507 -12.773,13.854c0.307,-3.147 0.507,-6.307 0.387,-9.467Z" style="fill:#7f4b33;fill-rule:nonzero;"/><path d="M337.12,206.053c5.827,8.8 3.68,20.28 0.6,29.694c-3.333,8.12 -8.293,17.826 -18.04,19.04c0.374,-4.667 0.827,-9.307 1.68,-13.907c0.187,1.973 0.414,3.96 0.68,5.933c4.894,-4.946 10.36,-11.026 9.787,-18.466c-0.52,-3.88 -5.027,-3.627 -7.933,-4.16c0.133,-1.44 0.28,-2.867 0.453,-4.28c3.427,-5.347 8.693,-9.067 12.773,-13.854Z" style="fill:#ba6d4a;fill-rule:nonzero;"/><path d="M88.36,245.24c-3.6,-8.973 -5.453,-19.24 -1.946,-28.547c5.466,4.28 11.506,8.094 15.626,13.814c0.36,2.693 0.68,5.4 1.147,8.08c-1.027,-1.987 -2.147,-3.907 -3.253,-5.827c-2.2,1.933 -6.28,3.373 -5.76,6.96c1.026,7.267 6.373,13.587 13.226,16.16c0.587,3.04 0.987,6.133 1.52,9.2c-10.066,-2.067 -16.706,-10.92 -20.56,-19.84Z" style="fill:#ba6d4a;fill-rule:nonzero;"/><path id="_.23.fafafaff" d="M260.187,210.267c1.933,-0.374 3.907,-0.294 5.88,-0.347c-1.267,2.173 -2.667,4.253 -4.173,6.267c-1.147,-0.227 -3.427,-0.694 -4.574,-0.934c0.84,-1.72 1.707,-3.453 2.867,-4.986Z" style="fill:#fafafa;fill-rule:nonzero;"/><path d="M287.36,208.133c4.574,1.147 9.2,2.414 13.294,4.854c-0.587,3.56 -0.347,7.773 -3.28,10.4c-2.574,2.96 -6.867,1.4 -10.24,1.573c0.053,-0.573 0.186,-1.707 0.24,-2.28c0.693,-4.827 0.28,-9.707 -0.014,-14.547Z" style="fill:#fefdfd;fill-rule:nonzero;"/><path d="M130.734,218.507c3.92,-1.72 7.88,-3.32 11.826,-4.947c-0.186,5.4 -0.4,10.947 1.694,16.053l0.346,1.094c-3.92,0.04 -8.946,1.853 -11.786,-1.854c-3.187,-2.52 -2.134,-6.853 -2.08,-10.346Z" style="fill:#fefdfd;fill-rule:nonzero;"/><path id="_.23.e8c3abff" d="M202.52,215c0.014,-1.96 1.454,-3.373 2.507,-4.867c0.493,12.707 0.44,25.467 0.027,38.187c-3.2,-3.853 -2.707,-9.053 -2.854,-13.72c0.094,-6.533 -0.32,-13.093 0.32,-19.6Z" style="fill:#e8c3ab;fill-rule:nonzero;"/><path id="_.23.fdfdfdff" d="M151.307,218.16c-0.36,-4.88 4.44,-6.12 8.4,-5.253c-1.72,2.746 -3.933,5.12 -6.427,7.186c-0.493,-0.48 -1.48,-1.453 -1.973,-1.933Z" style="fill:#fdfdfd;fill-rule:nonzero;"/><path id="_.23.5b5452ff" d="M277.68,212.973c1.974,3.774 3.094,7.907 3.574,12.147c1.626,-0.28 3.253,-0.547 4.88,-0.827c-2.507,2.68 -6.507,1.694 -9.76,2.227c-7.534,0.267 -14.947,2.253 -22.507,1.973c0.8,-0.12 2.387,-0.373 3.173,-0.506c-0.773,-4.214 -1.146,-8.6 0.28,-12.734c1.147,0.24 3.427,0.707 4.574,0.934c-0.907,1.2 -1.84,2.386 -2.747,3.573c3.173,2.907 6.88,6.507 11.627,5.147c5.786,-0.747 5.826,-7.56 6.906,-11.934Z" style="fill:#5b5452;fill-rule:nonzero;"/><path d="M236.987,227.493c3.987,-4.253 7.44,-9 11.72,-13c0.373,4.76 1.453,9.534 4.28,13.48c-5.267,0.894 -10.96,1.747 -16,-0.48Z" style="fill:#fefefe;fill-rule:nonzero;"/><path d="M201.974,403.573c0.64,0.067 1.933,0.214 2.586,0.28c4.334,0.507 8.72,0.467 13.067,0.08c0.56,-0.053 1.693,-0.16 2.253,-0.213c-2.413,4.893 -3.56,10.333 -2.24,15.733c-5.76,0.654 -11.586,0.707 -17.373,0.36c4.587,-4.373 3.12,-10.84 1.707,-16.24Z" style="fill:#fefefe;fill-rule:nonzero;"/><path id="_.23.73432eff" d="M86.414,216.693c5.106,0.054 9.973,1.667 14.493,3.947c-0.08,-0.613 -0.24,-1.84 -0.333,-2.453c0.426,2.893 0.76,5.813 1.066,8.72c0.107,0.906 0.307,2.706 0.4,3.6c-4.12,-5.72 -10.16,-9.534 -15.626,-13.814Z" style="fill:#73432e;fill-rule:nonzero;"/><path id="_.23.645e5dff" d="M151.307,218.16c0.493,0.48 1.48,1.453 1.973,1.933c-0.386,5.627 4.84,11.454 10.654,8.96c4.64,-1.106 5.92,-5.973 6.92,-9.986c0.693,-0.04 2.066,-0.12 2.746,-0.16c1.107,4.04 1.574,8.306 3.334,12.146l0.333,0.774c-10.56,-1.067 -21.187,0.346 -31.747,-0.68l0.974,-0.214c1.24,-0.266 2.48,-0.533 3.733,-0.813c0.147,-4 0.413,-8.013 1.08,-11.96Z" style="fill:#645e5d;fill-rule:nonzero;"/><path id="_.23.fdfcfcff" d="M181.587,217.8c4.267,2.693 7.88,6.213 11.453,9.72c-0.253,0.92 -0.773,2.773 -1.026,3.693c-4.36,-0.066 -8.734,0.014 -13.094,0.054c0.134,-0.454 0.387,-1.374 0.52,-1.84c1.294,-3.747 1.787,-7.694 2.147,-11.627Z" style="fill:#fdfcfc;fill-rule:nonzero;"/><path d="M323.894,224.187c2.906,0.533 7.413,0.28 7.933,4.16c0.573,7.44 -4.893,13.52 -9.787,18.466c-0.266,-1.973 -0.493,-3.96 -0.68,-5.933c0.974,-5.547 2.054,-11.08 2.534,-16.693Z" style="fill:#d28c5e;fill-rule:nonzero;"/><path d="M94.174,239.72c-0.52,-3.587 3.56,-5.027 5.76,-6.96c1.106,1.92 2.226,3.84 3.253,5.827c1.4,5.76 3.053,11.466 4.213,17.293c-6.853,-2.573 -12.2,-8.893 -13.226,-16.16Z" style="fill:#d28c5e;fill-rule:nonzero;"/><path id="_.23.543219ff" d="M101.64,226.907c2,0.093 4,0.173 6,0.253c-0.306,6.653 1.68,13.08 3.467,19.4c3.24,10.32 5.56,21.067 10.533,30.733c3.374,6.947 10.347,11.04 14.374,17.494c4.413,7.12 10.706,12.866 17.506,17.653c3.787,-6.44 2.68,-13.947 1.8,-20.973c0.174,-1.534 -0.853,-4.067 0.987,-4.827c9.987,-5.227 21.04,-8.173 32.173,-9.693c2.774,1.013 5.267,2.68 7.387,4.733c2.44,2.453 4.853,4.92 7.333,7.32c-12.066,0.96 -24.293,-0.76 -36.266,1.28c-4.867,1.24 -4.867,6.92 -4.48,10.947c1.44,14.986 5.746,31.413 18.586,40.693c5.8,3.16 12.44,4.933 19,5.613c4.174,-3.106 1.547,-9.466 -0.306,-13.44c-0.2,-0.506 -0.6,-1.493 -0.8,-1.986c6.066,2.173 12.12,5.24 18.76,4.786c6.493,-0.066 12.186,-3.506 17.92,-6.106c-0.16,0.573 -0.467,1.706 -0.627,2.28c-1.787,4.466 -1.413,9.253 0.213,13.693c8.067,-2.92 17.494,-4.533 23.094,-11.68c9.173,-10.813 11.333,-25.587 11.746,-39.293c0.027,-3.774 -1.146,-8.987 -5.666,-9.494c-8.307,-1.146 -16.614,0.92 -24.894,1.467c-4.16,0.213 -8.306,0.2 -12.453,0.2c2.427,-2.853 4.813,-5.733 7.227,-8.6c1.133,-1.293 2.293,-2.573 3.453,-3.853c5.44,-0.014 10.907,-0.12 16.347,0.306c6.373,1.147 12.693,2.76 18.8,4.987c1.36,0.627 3.573,1.267 3.253,3.24c-0.12,7.8 -1.333,16.147 3.453,22.96c6.867,-5.227 12.494,-12.04 16.507,-19.68c3,-5.613 8.32,-9.613 11.053,-15.413c3.494,-7.16 4.027,-15.267 6.547,-22.76c-1.68,13.786 -2.133,27.68 -2.773,41.533c-0.094,5.253 -3.44,9.493 -5.547,14.067c-2.413,4.84 -3.587,10.253 -6.533,14.826c-3.107,4.854 -8.574,7.4 -12.174,11.787c-3.413,4.053 -6.093,9.013 -11.013,11.467c-4.36,2.2 -8.08,5.4 -10.893,9.386c-5.84,7.92 -13.254,14.867 -22.227,19.067c-4.013,1.627 -8.48,1.227 -12.627,2.267c-5.24,1.066 -10.44,3.786 -15.88,2.546c-3.786,-0.826 -7.546,-1.906 -11.44,-2.08c-12.76,-0.333 -22.866,-9.693 -31.04,-18.56c-3.133,-3.773 -7.306,-6.36 -11.786,-8.24c-5.12,-2.106 -8.134,-6.946 -12,-10.6c-3.88,-3.76 -9.04,-6.026 -12.374,-10.346c-3.013,-3.947 -4.493,-8.774 -6.986,-13.027c-2.72,-4.947 -6.987,-9.307 -7.48,-15.187c-1.68,-12.426 -2.707,-25.093 -6.814,-37.026c-0.6,-2.28 -2.746,-3.494 -4.413,-4.907c0,3.12 0.067,6.253 0.373,9.36l-1.12,-0.4c-0.533,-3.067 -0.933,-6.16 -1.52,-9.2c-1.16,-5.827 -2.813,-11.533 -4.213,-17.293c-0.467,-2.68 -0.787,-5.387 -1.147,-8.08c-0.093,-0.894 -0.293,-2.694 -0.4,-3.6Z" style="fill:#543219;fill-rule:nonzero;"/><path id="_.23.f8c28dff" d="M34.107,249.28c14.24,-0.573 28.587,-1.227 42.573,-4.213c6.52,16.386 18,32.866 35.814,37.853c1.733,9.373 1.8,19.12 4.946,28.187c4.014,9.16 9.96,17.28 15.787,25.333c6.853,4.627 12.8,10.427 19.867,14.773c5.306,4.6 11.933,7.227 17.306,11.694c-1.306,6.546 -8.6,8.466 -12.76,12.866c-4.746,5.014 -11.76,6.014 -18.2,7.24c-5.946,-0.266 -12.52,0.36 -17.693,-3.133c-13.547,-9.08 -25.827,-20.107 -40.48,-27.467c-13.44,-6.706 -26.107,-14.786 -39.053,-22.346c-9.067,-5 -16.654,-12.294 -26.107,-16.667c-5.587,-2.56 -10.573,-6.4 -13.36,-12c0.027,0.667 0.107,1.987 0.147,2.64c-3.227,-18.533 -3.787,-37.573 -1.52,-56.267c0.12,2.574 0.293,5.147 0.426,7.734c1.454,-1.694 2.667,-3.96 5.04,-4.467c8.88,-2.52 18.2,-0.787 27.267,-1.76Z" style="fill:#f8c28d;fill-rule:nonzero;"/><path id="_.23.e5bca1ff" d="M205.987,267.467c2.32,1.173 3.48,3.44 4.347,5.786c-1.174,-0.026 -3.507,-0.106 -4.667,-0.133c0.093,-1.893 0.2,-3.773 0.32,-5.653Z" style="fill:#e5bca1;fill-rule:nonzero;"/><path id="_.23.884d31ff" d="M232.4,274.32c0.934,-2.453 1.854,-4.893 2.787,-7.333c1.067,2.306 2.133,4.64 3.187,6.973c5.24,0.493 10.48,1 15.68,1.853c-5.44,-0.426 -10.907,-0.32 -16.347,-0.306c-1.16,1.28 -2.32,2.56 -3.453,3.853c-7.547,-0.347 -11.134,8.24 -18.254,9.28c-4.133,0.72 -7.706,-1.933 -10.866,-4.173c-2.76,-1.84 -5.827,-5.16 -9.267,-2.787c-2.12,-2.053 -4.613,-3.72 -7.387,-4.733c2.227,-2.427 4.094,-5.147 5.974,-7.84c0.586,2.2 1.2,4.4 1.813,6.6c5.24,2.16 9.907,5.413 14.947,7.986c2.36,1.294 5.386,1.494 7.666,-0.133c4.587,-2.947 8.707,-6.613 13.52,-9.24Z" style="fill:#884d31;fill-rule:nonzero;"/><path id="_.23.b16846ff" d="M216,288.64c7.12,-1.04 10.707,-9.627 18.254,-9.28c-2.414,2.867 -4.8,5.747 -7.227,8.6c4.147,0 8.293,0.013 12.453,-0.2c-6.746,0.827 -13.48,1.787 -20.146,3.093c-7.627,1.534 -15.267,-0.986 -22.92,-0.773c-9.827,0.133 -19.654,-0.093 -29.48,0.2c11.973,-2.04 24.2,-0.32 36.266,-1.28c-2.48,-2.4 -4.893,-4.867 -7.333,-7.32c3.44,-2.373 6.507,0.947 9.267,2.787c3.16,2.24 6.733,4.893 10.866,4.173Z" style="fill:#b16846;fill-rule:nonzero;"/><path id="_.23.894e34ff" d="M240.84,300.107c7.974,-1.427 15.307,-5.027 23.08,-7.174c-2.24,6.134 -8.346,9.387 -11.573,14.867c-3.653,5.96 -8.133,11.373 -13.427,15.947c-13.88,8.866 -32.44,8.733 -46.386,0.093c-4.054,-3.533 -7.787,-7.44 -10.92,-11.827c-4.027,-5.786 -9.827,-10.08 -13.587,-16.066c6.44,1.386 12.56,4.026 19.093,4.986c6.6,1 13.307,0.867 19.974,0.854c11.253,-0.134 22.653,0.706 33.746,-1.68m4.534,5.133c0.066,-0.56 0.173,-1.667 0.24,-2.227c-13.774,4.08 -28.254,4.787 -42.52,4c-5.467,-0.693 -10.96,-1.333 -16.467,-1.426c0.973,1.213 1.933,2.453 3.053,3.56c-3.266,-1.254 -5.626,-4.347 -9.08,-5.054c-0.64,2.374 1.614,4.307 2.814,6.12c4.066,4.467 8.053,9.72 14.053,11.614c2.693,2.426 6.133,3.72 9.707,4.16c9.92,1.986 21.24,0.8 29.4,-5.6c-0.774,0.013 -2.307,0.04 -3.08,0.053c9.093,-1.187 13.76,-9.907 18.88,-16.427c-0.387,-0.693 -1.16,-2.08 -1.547,-2.773c-1.8,1.36 -3.627,2.68 -5.453,4Z" style="fill:#894e34;fill-rule:nonzero;"/><path id="_.23.f3b588ff" d="M2.747,301.4c2.787,5.6 7.773,9.44 13.36,12c9.453,4.373 17.04,11.667 26.107,16.667c12.946,7.56 25.613,15.64 39.053,22.346c14.653,7.36 26.933,18.387 40.48,27.467c5.173,3.493 11.747,2.867 17.693,3.133c-12.226,3.28 -24.773,5.974 -36.106,11.774c-5.96,2.786 -8.96,8.92 -12.707,13.933c-6.013,8.267 -9.147,18.08 -11.907,27.8c-40.426,-32.813 -68.12,-80.96 -75.826,-132.48c-0.04,-0.653 -0.12,-1.973 -0.147,-2.64Z" style="fill:#f3b588;fill-rule:nonzero;"/><path id="_.23.470d0dff" d="M245.374,305.24c1.826,-1.32 3.653,-2.64 5.453,-4c0.387,0.693 1.16,2.08 1.547,2.773c-5.12,6.52 -9.787,15.24 -18.88,16.427c-11.96,1.36 -24,1.787 -36.027,1.387c-6,-1.894 -9.987,-7.147 -14.053,-11.614c-1.2,-1.813 -3.454,-3.746 -2.814,-6.12c3.454,0.707 5.814,3.8 9.08,5.054c7.56,3.36 16.067,2 24.08,2.466c10.68,-0.146 22.72,0.587 31.614,-6.373Z" style="fill:#470d0d;fill-rule:nonzero;"/><path id="_.23.f8c190ff" d="M316.08,301.4c5.414,3.04 11.374,4.88 17.44,6.053c-0.72,5.48 -2.24,10.84 -2.453,16.374c0.787,4.36 4.747,7.506 5.427,11.96c1.146,6.64 1.133,13.6 4.053,19.826c2.933,7.214 8.213,13.054 13.56,18.587c5.947,6.173 10.187,13.72 15.987,20.027c3.693,4.066 8.413,6.933 13.053,9.786c-7.853,9.467 -16.227,18.52 -25.4,26.72c-11.293,-12.386 -23.173,-25.066 -38.68,-32.133c-9.173,-4.52 -19.96,-2.387 -29.213,-6.68c-6.614,-2.987 -13.92,-4.373 -20.28,-7.893c-4.627,-4.387 -8.36,-9.667 -13.427,-13.627c5.32,-4.053 9.107,-9.627 13.8,-14.293c9.48,-6.76 18.573,-14.174 26.653,-22.56c3.907,-2.494 7,-5.92 8.814,-10.214c4.48,-6.826 7.666,-14.36 10.666,-21.933Z" style="fill:#f8c190;fill-rule:nonzero;"/><path id="_.23.fcfbfbff" d="M203.094,307.013c14.266,0.787 28.746,0.08 42.52,-4c-0.067,0.56 -0.174,1.667 -0.24,2.227c-8.894,6.96 -20.934,6.227 -31.614,6.373c-8.013,-0.466 -16.52,0.894 -24.08,-2.466c-1.12,-1.107 -2.08,-2.347 -3.053,-3.56c5.507,0.093 11,0.733 16.467,1.426Z" style="fill:#fcfbfb;fill-rule:nonzero;"/><path id="_.23.fcfbf9ff" d="M197.467,321.827c12.027,0.4 24.067,-0.027 36.027,-1.387c0.773,-0.013 2.306,-0.04 3.08,-0.053c-8.16,6.4 -19.48,7.586 -29.4,5.6c-3.574,-0.44 -7.014,-1.734 -9.707,-4.16Z" style="fill:#fcfbf9;fill-rule:nonzero;"/><path d="M170.4,362.907c2.84,2.906 5.507,6.013 8.614,8.653c-0.587,0.12 -1.774,0.36 -2.36,0.48c0.906,2.453 1.933,4.867 2.92,7.307c0.48,1.36 0.946,2.72 1.586,4.026c2.307,0.587 4.72,0.654 7.094,0.827c-1.64,0.547 -3.294,1.013 -4.947,1.507c6.773,6.013 12.8,14.626 22.667,15.186c-2.4,0.094 -4.787,0.307 -7.174,0.52c1.907,0.84 3.8,1.694 5.76,2.44c-0.653,-0.066 -1.946,-0.213 -2.586,-0.28c1.413,5.4 2.88,11.867 -1.707,16.24c-1.84,2.494 -4.76,4.76 -4.613,8.16c-0.147,12.854 0.373,25.734 -0.44,38.574c-0.56,5.866 -0.747,11.773 -0.627,17.68c2.493,0.226 4.987,0.466 7.493,0.64c-3.96,-0.587 -8.893,0.6 -12.24,-1.68c1.12,-15.294 0.72,-30.64 0.894,-45.974c0.146,-5.52 -0.92,-11.746 2.706,-16.453c2.187,-3.84 7.187,-8.08 4.307,-12.827c-5.467,-8.586 -14.52,-14 -20.947,-21.773c-2.8,-3.347 -3.066,-7.907 -3.973,-12c-4.187,2.16 -9.147,4.053 -11.36,8.56c-0.413,6.96 2.067,13.68 3.787,20.333c1.72,5.374 2.76,11.16 6.106,15.827c7.107,-0.227 11.187,-7.147 17.36,-9.64c2.134,-0.227 4.28,0.16 6.4,0.36c-0.2,0.573 -0.613,1.733 -0.813,2.307c-6.667,1.213 -12.6,5.106 -16.893,10.266c-0.88,2.227 -0.96,4.654 -1.187,7.014c-0.96,16.893 -2.093,33.813 -4.12,50.613c-0.6,0.227 -1.827,0.667 -2.427,0.893c0.374,-16.906 3.894,-33.72 2.76,-50.653c-0.053,-0.493 -0.133,-1.48 -0.173,-1.96c-1.493,-0.28 -2.973,-0.52 -4.467,-0.747c0.374,-0.933 0.76,-1.853 1.147,-2.773c-1.52,-3.347 -2.907,-6.76 -3.933,-10.293c-2.827,-9.12 -5.027,-18.414 -7.4,-27.654c-14.8,2.88 -29.587,6.334 -43.64,11.867c-3.6,1.387 -7.24,2.773 -10.52,4.827c-12.08,8.866 -15.734,24.36 -18.48,38.253c-2.054,-1.707 -4.147,-3.387 -6.254,-5.04c2.76,-9.72 5.894,-19.533 11.907,-27.8c3.747,-5.013 6.747,-11.147 12.707,-13.933c11.333,-5.8 23.88,-8.494 36.106,-11.774c6.44,-1.226 13.454,-2.226 18.2,-7.24c4.16,-4.4 11.454,-6.32 12.76,-12.866Z" style="fill:#605f4b;fill-rule:nonzero;"/><path d="M241.174,378.72c5.2,-2.36 10.226,-5.133 14.973,-8.32c5.067,3.96 8.8,9.24 13.427,13.627c6.36,3.52 13.666,4.906 20.28,7.893c9.253,4.293 20.04,2.16 29.213,6.68c15.507,7.067 27.387,19.747 38.68,32.133c-1.907,1.68 -3.813,3.334 -5.747,4.974c-6.653,-9.014 -15,-16.6 -23.653,-23.654c-1.8,1.227 -3.587,2.454 -5.387,3.68c-2.84,-1.773 -5.666,-3.573 -8.626,-5.133c-2.92,-1.467 -5.96,-2.653 -8.894,-4.053c-12.546,-6.814 -26.24,-11.214 -39.813,-15.507c-3.147,9.147 -6.227,18.333 -9.16,27.56c-2.507,6.453 -11.973,8.12 -11.147,16.013c-0.08,15.587 -0.173,31.174 0.134,46.76c1.106,0.107 3.333,0.32 4.44,0.44l1.413,0.094c-2.893,0.693 -5.813,1.24 -8.72,1.84c0.773,-13.28 -0.267,-26.587 0.173,-39.88c-0.053,-6.16 0.72,-12.494 -0.946,-18.494c-2.534,-5.146 -7.64,-8.32 -11.694,-12.186c-1,0.4 -3.013,1.213 -4.026,1.613c-0.16,-2.933 2.36,-6.573 5.533,-4.733c5.867,4.493 10.413,10.933 17.84,13.16c5.213,-10.04 9.32,-20.72 12.04,-31.707c1.773,-6.68 -4.733,-11.053 -9.36,-14.427c-1.253,4.12 -2.08,8.72 -5.347,11.814c-6.786,6.666 -15.546,10.96 -22.106,17.88c-1.8,1.946 -3.587,4.626 -2.654,7.4c1.667,5.12 6.174,9.253 5.987,14.946c0.133,8.2 -0.733,16.48 0.627,24.64c2.493,3.027 6.426,3.374 10.066,3.72c0.414,-2.546 0.84,-5.093 1.28,-7.626c-0.146,3.306 0.467,6.906 -1.026,10c-3.054,3.666 -7.56,0.386 -10.867,-0.974c-0.2,8.6 -0.187,17.227 -0.013,25.84c-1.494,-0.066 -2.974,-0.146 -4.454,-0.213c-0.146,-10.88 0.12,-21.787 -0.826,-32.64c-0.534,-7.587 0.493,-15.16 0.573,-22.747c0.173,-4.093 -3.12,-7.026 -5.747,-9.68c-1.32,-5.4 -0.173,-10.84 2.24,-15.733c-0.56,0.053 -1.693,0.16 -2.253,0.213c1.933,-0.76 3.84,-1.626 5.733,-2.466c-2.84,-0.267 -5.693,-0.52 -8.533,-0.627c10.44,0.64 18.107,-7 25.28,-13.373c1.84,-1.627 3.707,-3.227 5.573,-4.814c-1.52,-1.306 -3.026,-2.613 -4.506,-3.933Z" style="fill:#605f4b;fill-rule:nonzero;"/><path id="_.23.a3a286ff" d="M176.654,372.04c0.586,-0.12 1.773,-0.36 2.36,-0.48c2.533,1.507 5.04,3.053 7.626,4.48c-2.333,1.147 -4.706,2.227 -7.066,3.307c-0.987,-2.44 -2.014,-4.854 -2.92,-7.307Z" style="fill:#a3a286;fill-rule:nonzero;"/><path d="M161.467,382.72c2.213,-4.507 7.173,-6.4 11.36,-8.56c0.907,4.093 1.173,8.653 3.973,12c6.427,7.773 15.48,13.187 20.947,21.773c2.88,4.747 -2.12,8.987 -4.307,12.827c-3.626,4.707 -2.56,10.933 -2.706,16.453c-0.174,15.334 0.226,30.68 -0.894,45.974c-6.066,0.386 -11.946,-1.48 -17.946,-1.96l0.213,-1.427c2.027,-16.8 3.16,-33.72 4.12,-50.613c4.787,-2.734 9.867,-5.147 14.053,-8.814c2.44,-2.16 2.934,-5.573 4.027,-8.466c0.2,-0.574 0.613,-1.734 0.813,-2.307c-2.12,-0.2 -4.266,-0.587 -6.4,-0.36c-6.173,2.493 -10.253,9.413 -17.36,9.64c-3.346,-4.667 -4.386,-10.453 -6.106,-15.827c-1.72,-6.653 -4.2,-13.373 -3.787,-20.333Z" style="fill:#a2a185;fill-rule:nonzero;"/><path d="M252.147,377.093c4.627,3.374 11.133,7.747 9.36,14.427c-2.72,10.987 -6.827,21.667 -12.04,31.707c-7.427,-2.227 -11.973,-8.667 -17.84,-13.16c-3.173,-1.84 -5.693,1.8 -5.533,4.733c1.813,7.96 9.226,12.053 15.533,16.12c0.547,17.267 -1.04,34.64 0.827,51.84c-4.614,1.653 -9.52,1.773 -14.36,1.973c-0.174,-8.613 -0.187,-17.24 0.013,-25.84c3.307,1.36 7.813,4.64 10.867,0.974c1.493,-3.094 0.88,-6.694 1.026,-10c-2.266,-0.64 -4.52,-1.507 -6.893,-1.507c-1.68,1.64 -3.027,3.56 -4.453,5.413c-1.36,-8.16 -0.494,-16.44 -0.627,-24.64c0.187,-5.693 -4.32,-9.826 -5.987,-14.946c-0.933,-2.774 0.854,-5.454 2.654,-7.4c6.56,-6.92 15.32,-11.214 22.106,-17.88c3.267,-3.094 4.094,-7.694 5.347,-11.814Z" style="fill:#a2a185;fill-rule:nonzero;"/><path d="M113.974,398.48c14.053,-5.533 28.84,-8.987 43.64,-11.867c2.373,9.24 4.573,18.534 7.4,27.654c0.386,4.2 -0.907,8.253 -2.734,11.986c1.334,-0.08 2.654,-0.146 4,-0.213c-4.093,5.133 -8.546,11.427 -15.653,12.12c-7.92,0.4 -16.053,0.64 -23.76,-1.547c0.92,-1.333 1.88,-2.653 2.827,-3.973c-1.107,-0.08 -2.214,-0.16 -3.307,-0.24c-0.627,-7.893 -0.693,-15.867 -2.48,-23.613c-4.76,8.64 -4.413,18.853 -4.373,28.426c-2.427,-0.24 -4.854,-0.466 -7.28,-0.666c0.253,-5.294 0.533,-10.574 0.666,-15.867c-2.786,5.107 -6.453,10.413 -5.52,16.533c-1.346,-0.08 -2.68,-0.146 -4,-0.2c-0.613,-1.76 -1.213,-3.506 -1.773,-5.266l-0.027,-1.04c0.574,-11.827 6.614,-22.254 12.374,-32.227Z" style="fill:#a2a185;fill-rule:nonzero;"/><path d="M256.467,418.6c2.933,-9.227 6.013,-18.413 9.16,-27.56c13.573,4.293 27.267,8.693 39.813,15.507c4.734,10.533 9.334,21.44 9.414,33.2c-0.214,1.853 -0.494,3.693 -0.734,5.546c-1.266,-0.666 -2.506,-1.32 -3.76,-1.973c-0.666,0.547 -2,1.613 -2.666,2.16c-3.04,-5.64 -4.387,-11.947 -6.48,-17.947c-0.04,5.467 -0.174,10.96 -1.267,16.334c-2.013,-0.734 -4.027,-1.454 -6.04,-2.174c-0.213,-8.4 1.533,-17.346 -2.36,-25.186c-2.96,8.626 -3.173,17.866 -5.587,26.626c-5.8,-0.933 -11.64,-1.64 -17.52,-1.8c-3.44,0.094 -6.026,-2.373 -8.533,-4.36c-0.8,0.334 -1.6,0.68 -2.4,1.04c-0.107,-1.373 -0.213,-2.746 -0.293,-4.12c-0.974,0.16 -1.934,0.32 -2.88,0.48c0.586,-5.28 1.053,-10.573 2.133,-15.773Z" style="fill:#a2a185;fill-rule:nonzero;"/><path d="M84.974,441.56c2.746,-13.893 6.4,-29.387 18.48,-38.253c-1.96,8.64 -6.214,16.666 -6.467,25.693c-1.067,6.387 -1.84,12.813 -2.04,19.293c-3.533,-1.933 -6.8,-4.28 -9.973,-6.733Z" style="fill:#a2a185;fill-rule:nonzero;"/><path d="M319.734,439.68c0.52,-10.053 -2.44,-19.627 -5.4,-29.08c2.96,1.56 5.786,3.36 8.626,5.133c1.8,-1.226 3.587,-2.453 5.387,-3.68c8.653,7.054 17,14.64 23.653,23.654c-10.053,8.213 -20.813,15.573 -32.08,22.026c-0.106,-6.013 0,-12.04 -0.186,-18.053Z" style="fill:#a2a185;fill-rule:nonzero;"/><path d="M154.68,439.213c5.707,-2.36 9.214,-10.053 16.374,-7.946c-5.2,15.466 -2.974,32.093 -6.174,47.92c-22.44,-4.934 -43.693,-14.387 -63.36,-26.134c0.027,-4.44 0.134,-8.88 0.187,-13.32c1.72,0.08 3.453,0.16 5.173,0.254c0.92,3.186 1.84,6.36 2.814,9.533c0.573,-3.36 1.12,-6.72 1.626,-10.08c2.92,-0.067 7.16,-1.467 8.827,1.84c2.613,5.707 3.973,12.36 9.307,16.347c-0.574,-5.974 -1.6,-11.894 -2.494,-17.827c9.227,-0.76 18.547,0.653 27.72,-0.587Z" style="fill:#a2a185;fill-rule:nonzero;"/><path d="M249.414,442.867c-0.467,-2.987 1,-5.627 2.626,-7.987c3.294,3.253 5.747,7.773 10.147,9.68c7.773,1.96 15.987,0.76 23.747,2.987c-1.734,5.96 -3.627,11.866 -5.187,17.88c6.64,-4.187 9.48,-11.68 12.067,-18.694c2.813,0.387 5.613,0.787 8.426,1.2c0.427,3.2 0.854,6.414 1.307,9.627c0.88,-2.773 1.72,-5.573 2.547,-8.36c2.48,-0.16 4.973,-0.293 7.466,-0.413c0.12,3.373 0.254,6.76 0.24,10.146c-0.026,0.64 -0.08,1.92 -0.106,2.56c-19.214,9.934 -40.014,17.107 -61.387,20.414l-1.413,-0.094c-0.28,-12.986 0.386,-25.973 -0.48,-38.946Z" style="fill:#a2a185;fill-rule:nonzero;"/><path id="_.23.47281aff" d="M230.96,379.707c3.36,-0.694 6.8,-0.667 10.214,-0.987c1.48,1.32 2.986,2.627 4.506,3.933c-1.866,1.587 -3.733,3.187 -5.573,4.814c-1.867,-2.707 -3.68,-5.44 -5.4,-8.227c-0.947,0.12 -2.813,0.347 -3.747,0.467Z" style="fill:#47281a;fill-rule:nonzero;"/><path id="_.23.89886eff" d="M103.454,403.307c3.28,-2.054 6.92,-3.44 10.52,-4.827c-5.76,9.973 -11.8,20.4 -12.374,32.227c-1.533,-0.574 -3.08,-1.147 -4.613,-1.707c0.253,-9.027 4.507,-17.053 6.467,-25.693Z" style="fill:#89886e;fill-rule:nonzero;"/><path id="_.23.47545fff" d="M198.8,401.413c2.387,-0.213 4.774,-0.426 7.174,-0.52c2.946,-0.026 5.893,-0.053 8.853,-0.053c2.84,0.107 5.693,0.36 8.533,0.627c-1.893,0.84 -3.8,1.706 -5.733,2.466c-4.347,0.387 -8.733,0.427 -13.067,-0.08c-1.96,-0.746 -3.853,-1.6 -5.76,-2.44Z" style="fill:#47545f;fill-rule:nonzero;"/><path id="_.23.8a886fff" d="M305.44,406.547c2.934,1.4 5.974,2.586 8.894,4.053c2.96,9.453 5.92,19.027 5.4,29.08c-1.214,0.013 -3.667,0.053 -4.88,0.067c-0.08,-11.76 -4.68,-22.667 -9.414,-33.2Z" style="fill:#8a886f;fill-rule:nonzero;"/><path id="_.23.77765eff" d="M119.534,437.213c-0.04,-9.573 -0.387,-19.786 4.373,-28.426c1.787,7.746 1.853,15.72 2.48,23.613c1.093,0.08 2.2,0.16 3.307,0.24c-0.947,1.32 -1.907,2.64 -2.827,3.973c7.707,2.187 15.84,1.947 23.76,1.547c7.107,-0.693 11.56,-6.987 15.653,-12.12c-1.346,0.067 -2.666,0.133 -4,0.213c1.827,-3.733 3.12,-7.786 2.734,-11.986c1.026,3.533 2.413,6.946 3.933,10.293c-0.387,0.92 -0.773,1.84 -1.147,2.773c1.494,0.227 2.974,0.467 4.467,0.747c0.04,0.48 0.12,1.467 0.173,1.96c-0.346,0.307 -1.04,0.92 -1.386,1.227c-7.16,-2.107 -10.667,5.586 -16.374,7.946c-9.173,1.24 -18.493,-0.173 -27.72,0.587c0.894,5.933 1.92,11.853 2.494,17.827c-5.334,-3.987 -6.694,-10.64 -9.307,-16.347c-1.667,-3.307 -5.907,-1.907 -8.827,-1.84c-0.506,3.36 -1.053,6.72 -1.626,10.08c-0.974,-3.173 -1.894,-6.347 -2.814,-9.533c-1.72,-0.094 -3.453,-0.174 -5.173,-0.254c0.013,-2.666 -0.027,-5.333 -0.08,-7.986c0.56,1.76 1.16,3.506 1.773,5.266c1.32,0.054 2.654,0.12 4,0.2c-0.933,-6.12 2.734,-11.426 5.52,-16.533c-0.133,5.293 -0.413,10.573 -0.666,15.867c2.426,0.2 4.853,0.426 7.28,0.666Z" style="fill:#77765e;fill-rule:nonzero;"/><path d="M177.414,422.173c4.293,-5.16 10.226,-9.053 16.893,-10.266c-1.093,2.893 -1.587,6.306 -4.027,8.466c-4.186,3.667 -9.266,6.08 -14.053,8.814c0.227,-2.36 0.307,-4.787 1.187,-7.014Z" style="fill:#828168;fill-rule:nonzero;"/><path d="M226.094,414.8c1.013,-0.4 3.026,-1.213 4.026,-1.613c4.054,3.866 9.16,7.04 11.694,12.186c1.666,6 0.893,12.334 0.946,18.494c-0.44,13.293 0.6,26.6 -0.173,39.88l-0.133,-0.987c-1.867,-17.2 -0.28,-34.573 -0.827,-51.84c-6.307,-4.067 -13.72,-8.16 -15.533,-16.12Z" style="fill:#828168;fill-rule:nonzero;"/><path id="_.23.787760ff" d="M291.547,416.507c3.893,7.84 2.147,16.786 2.36,25.186c2.013,0.72 4.027,1.44 6.04,2.174c1.093,-5.374 1.227,-10.867 1.267,-16.334c2.093,6 3.44,12.307 6.48,17.947c0.666,-0.547 2,-1.613 2.666,-2.16c1.254,0.653 2.494,1.307 3.76,1.973c-0.573,4.534 -1.013,9.08 -1.32,13.64c0.014,-3.386 -0.12,-6.773 -0.24,-10.146c-2.493,0.12 -4.986,0.253 -7.466,0.413c-0.827,2.787 -1.667,5.587 -2.547,8.36c-0.453,-3.213 -0.88,-6.427 -1.307,-9.627c-2.813,-0.413 -5.613,-0.813 -8.426,-1.2c-2.587,7.014 -5.427,14.507 -12.067,18.694c1.56,-6.014 3.453,-11.92 5.187,-17.88c-7.76,-2.227 -15.974,-1.027 -23.747,-2.987c-4.4,-1.907 -6.853,-6.427 -10.147,-9.68c-2.24,-0.067 -4.48,-0.16 -6.72,-0.267c-0.826,-7.893 8.64,-9.56 11.147,-16.013c-1.08,5.2 -1.547,10.493 -2.133,15.773c0.946,-0.16 1.906,-0.32 2.88,-0.48c0.08,1.374 0.186,2.747 0.293,4.12c0.8,-0.36 1.6,-0.706 2.4,-1.04c2.507,1.987 5.093,4.454 8.533,4.36c5.88,0.16 11.72,0.867 17.52,1.8c2.414,-8.76 2.627,-18 5.587,-26.626Z" style="fill:#787760;fill-rule:nonzero;"/><path id="_.23.ffffffff" d="M195.654,427.973c-0.147,-3.4 2.773,-5.666 4.613,-8.16c5.787,0.347 11.613,0.294 17.373,-0.36c2.627,2.654 5.92,5.587 5.747,9.68c-0.08,7.587 -1.107,15.16 -0.573,22.747c0.946,10.853 0.68,21.76 0.826,32.64c-7.093,1.68 -14.373,0.48 -21.56,0.347c-2.506,-0.174 -5,-0.414 -7.493,-0.64c-0.12,-5.907 0.067,-11.814 0.627,-17.68c0.813,-12.84 0.293,-25.72 0.44,-38.574Z" style="fill:#fff;fill-rule:nonzero;"/><path d="M96.987,429c1.533,0.56 3.08,1.133 4.613,1.707l0.027,1.04c0.053,2.653 0.093,5.32 0.08,7.986c-0.053,4.44 -0.16,8.88 -0.187,13.32c-2.266,-1.48 -4.626,-2.866 -6.573,-4.76c0.2,-6.48 0.973,-12.906 2.04,-19.293Z" style="fill:#61604c;fill-rule:nonzero;"/><path d="M314.854,439.747c1.213,-0.014 3.666,-0.054 4.88,-0.067c0.186,6.013 0.08,12.04 0.186,18.053c-2.413,1.267 -4.826,2.507 -7.226,3.76c0.026,-0.64 0.08,-1.92 0.106,-2.56c0.307,-4.56 0.747,-9.106 1.32,-13.64c0.24,-1.853 0.52,-3.693 0.734,-5.546Z" style="fill:#61604c;fill-rule:nonzero;"/><path id="_.23.908e75ff" d="M171.054,431.267c0.346,-0.307 1.04,-0.92 1.386,-1.227c1.134,16.933 -2.386,33.747 -2.76,50.653c-1.6,-0.533 -3.186,-1.04 -4.8,-1.506c3.2,-15.827 0.974,-32.454 6.174,-47.92Z" style="fill:#908e75;fill-rule:nonzero;"/><path id="_.23.929176ff" d="M245.32,434.613c2.24,0.107 4.48,0.2 6.72,0.267c-1.626,2.36 -3.093,5 -2.626,7.987c0.866,12.973 0.2,25.96 0.48,38.946c-1.107,-0.12 -3.334,-0.333 -4.44,-0.44c-0.307,-15.586 -0.214,-31.173 -0.134,-46.76Z" style="fill:#929176;fill-rule:nonzero;"/><path id="_.23.3d3c25ff" d="M233.107,448.36c2.373,0 4.627,0.867 6.893,1.507c-0.44,2.533 -0.866,5.08 -1.28,7.626c-3.64,-0.346 -7.573,-0.693 -10.066,-3.72c1.426,-1.853 2.773,-3.773 4.453,-5.413Z" style="fill:#3d3c25;fill-rule:nonzero;"/></svg>