<?xml version="1.0" encoding="UTF-8" standalone="no"?><!DOCTYPE svg PUBLIC "-//W3C//DTD SVG 1.1//EN" "http://www.w3.org/Graphics/SVG/1.1/DTD/svg11.dtd"><svg width="100%" height="100%" viewBox="0 0 373 332" version="1.1" xmlns="http://www.w3.org/2000/svg" xmlns:xlink="http://www.w3.org/1999/xlink" xml:space="preserve" style="fill-rule:evenodd;clip-rule:evenodd;stroke-linejoin:round;stroke-miterlimit:1.41421;"><path d="M221.255,13.767c11.7,-6.9 24.5,-12.7 38.1,-13.7c10.3,-0.6 21.2,2.8 27.9,10.9c9.8,11.6 12.3,27.3 13.1,41.9c0.7,17.1 -2.5,33.9 -5.3,50.7c18.6,5.2 36.6,13.1 52.4,24.2c10.4,7.5 20.4,17 24.2,29.6c3,9.4 0.5,19.8 -5,27.8c-8.7,13 -22.2,21.9 -35.8,29.1c-11.4,5.9 -23.5,10.5 -35.7,14.4c4.5,20.1 7.1,40.8 4.7,61.3c-1.6,11.8 -5.1,24.1 -13.7,32.7c-7.2,7.3 -17.9,9.9 -27.8,8.8c-17.1,-1.9 -32.5,-10.3 -46.5,-19.8c-8.9,-6.1 -17.1,-13.1 -25.1,-20.3c-11.1,10.4 -23.1,19.9 -36.2,27.6c-13.7,7.8 -29.2,14.5 -45.3,12.6c-9.7,-1.1 -18.3,-7.3 -23.2,-15.5c-7.2,-12 -9,-26.4 -9.4,-40.2c-0.1,-15.9 2.2,-31.7 5.7,-47.1c-21.9,-7 -43.9,-16 -61.4,-31.3c-8.5,-7.7 -16.2,-17.8 -16.9,-29.6c-0.7,-11.2 5.4,-21.6 12.9,-29.3c11.6,-11.8 26.4,-19.9 41.4,-26.5c7.6,-3.1 15.3,-6.2 23.3,-8.3c-2.7,-15.4 -5.8,-30.9 -5.3,-46.7c-0.4,-10.4 1.2,-20.8 4.3,-30.7c3.4,-10 10.1,-19.8 20.4,-23.5c11,-4.2 23.2,-2.3 34,1.6c20.9,7.5 38.8,21.3 55,36.1c11.2,-9.9 22.4,-19.5 35.2,-26.8m-125.1,11.7c-5.3,8.8 -5.8,19.4 -6.7,29.3c-0.3,14.8 2.2,29.5 5.1,44c15.8,-4.1 32.1,-6.3 48.3,-8.4c9.4,-13 19.4,-25.5 30.4,-37.1c1,-1.1 -1.1,-1.9 -1.6,-2.7c-11.7,-10.3 -24.2,-19.9 -38.3,-26.7c-7.8,-3.6 -16.2,-6.8 -24.9,-6.1c-5.1,-0.1 -9.8,3.3 -12.3,7.7m156.1,-6.8c-20.5,6.1 -37.7,19.8 -53.4,33.9c11.2,12 21.8,24.6 31.3,37.9c16.2,1.8 32.4,4.4 48.3,8.1c3.5,-18.4 6.3,-37.2 3.7,-55.9c-1.4,-7.9 -3.3,-16.5 -9.4,-22.1c-5.8,-4.6 -13.9,-3.6 -20.5,-1.9m-86.7,70.2c13.8,-1 27.7,-0.9 41.6,0c-6.6,-8.3 -13.5,-16.4 -21,-23.9c-7.1,7.8 -14.3,15.5 -20.6,23.9m-13,18c-13.2,18.6 -24.5,38.6 -34.3,59.2c9.6,20.6 21.1,40.3 34.1,59c22.7,2 45.6,2.1 68.3,-0.1c13.2,-18.5 24.3,-38.5 34.1,-59c-9.7,-20.6 -21.2,-40.5 -34.4,-59.1c-5.3,0.1 -10.5,-0.5 -15.7,-1c-12.1,-0.2 -24.2,-0.2 -36.3,0c-5.3,0.5 -10.5,1.1 -15.8,1m-53.5,8.7c3,9.9 6,19.9 10.2,29.4c6.4,-12 12.8,-24 20.3,-35.3c-10.2,1.5 -20.4,3.4 -30.5,5.9m144.2,-5.9c7.4,11.4 14,23.3 20.5,35.2c3.7,-9.5 7.2,-19.1 9.8,-29l-0.5,-0.5c-9.9,-2.4 -19.8,-4.2 -29.8,-5.7m-213.4,36.4c-5.4,4.8 -11.1,10.4 -12.5,17.8c-1.1,8.6 5.4,15.5 11.2,20.9c15.4,13.3 34.7,20.9 53.8,27.3c4.7,-15.6 10.2,-30.9 16.9,-45.8c-6.5,-15 -12.6,-30.3 -17,-46c-18.5,6 -37.2,13.2 -52.4,25.8m260.6,-26c-4.7,15.6 -10.3,30.9 -16.9,45.8c6.6,15 12.5,30.4 17,46.1c13.2,-4.3 26.4,-9.3 38.4,-16.4c8.1,-4.7 15.9,-10.2 21.8,-17.6c2.7,-3.5 5.1,-7.6 5,-12.2c0.1,-4.6 -2.4,-8.7 -5.1,-12.2c-5.9,-7.2 -13.6,-12.6 -21.6,-17.3c-12.1,-7 -25.3,-12 -38.6,-16.2m-191.3,96.6c10.2,2.2 20.4,4.5 30.7,5.8c-7.5,-11.4 -14.3,-23.3 -20.6,-35.4c-3.8,9.7 -7.3,19.5 -10.1,29.6m144,5.7c10.4,-1.4 20.6,-3.6 30.8,-5.8c-2.7,-10.1 -6.4,-19.9 -10.1,-29.7c-6.8,12 -13.1,24.1 -20.7,35.5m-148.4,11c-3.1,15.6 -5.7,31.5 -4.6,47.5c0.5,9.4 2,19.2 7.2,27.2c3,4.8 8.7,7.1 14.2,6.9c8.8,-0.5 17.3,-3.8 25.1,-7.8c14,-7.3 26.3,-17.2 37.9,-27.7c-11.3,-11.9 -21.7,-24.5 -31.4,-37.7c-16.3,-2.1 -32.5,-4.8 -48.4,-8.4m135.4,8.1c-9.6,13.2 -20,25.8 -31.2,37.7c12.6,11.5 26.3,22.2 41.8,29.5c8,3.6 16.8,6.6 25.7,5.4c4.6,-0.5 8.4,-3.9 10.6,-7.8c4.6,-8 5.6,-17.4 6.4,-26.4c0.7,-15.8 -1.7,-31.5 -5.1,-46.8c-15.9,4 -32,6.5 -48.2,8.4m-64.4,1.7c6.6,8.3 13.6,16.3 20.9,24c7.4,-7.6 14.1,-15.7 20.7,-24c-13.9,0.8 -27.8,0.7 -41.6,0Z" style="fill:#444;fill-rule:nonzero;"/><path d="M181.055,131.567c17.3,-3.2 35.5,9.1 39.2,26.2c3.9,14.9 -3.7,31.7 -17.3,38.8c-9.7,5.3 -22,5.6 -31.9,0.6c-9.9,-4.8 -17.2,-14.6 -19,-25.4c-2.6,-13.9 4.4,-28.7 16.6,-35.7c3.8,-2.3 8.1,-3.8 12.4,-4.5Z" style="fill:#444;fill-rule:nonzero;"/></svg>